<svg width="317" height="409" viewBox="0 0 317 409" fill="none" xmlns="http://www.w3.org/2000/svg">
<path d="M125.695 112.753C130.382 106.948 131.377 102.504 131.344 99.4243C131.325 97.7982 131.618 94.3627 131.845 89.3763C131.898 88.2201 132.091 87.0921 132.573 86.0225C134.898 80.8614 142.291 79.9307 146.653 76.1042C149.052 73.999 150.515 71.0064 153.208 69.2424C158.405 65.8388 165.617 68.3383 171.795 67.0123C178.618 65.5474 183.621 59.5205 190.513 58.3762C194.276 57.7517 198.268 58.6639 201.902 57.5559C205.764 56.3792 208.579 53.1086 212.43 51.8995C215.871 50.819 219.624 51.5317 223.171 52.2526L238.849 55.4404C242.595 56.2018 246.664 57.1498 248.98 60.0153C248.98 60.0153 238.835 60.6626 232.984 64.2906C228.222 67.2427 224.249 71.1616 220.321 75.0454C210.172 85.0788 201.902 93.6754 198.563 96.5545C192.602 101.696 181.156 111.367 164.578 115.826C155.722 118.207 148.626 117.773 146.77 117.687C142.81 117.504 131.414 116.576 119.659 109.687C115.012 106.963 112.228 104.432 107.516 100.094C95.601 89.1248 94.1425 84.066 82.161 71.7148C73.6169 62.9079 69.0069 59.1301 62.2987 58.3649C55.9316 57.6392 50.4416 59.9434 47.063 61.7917C50.3437 55.6605 56.9337 48.2936 63.7451 45.8007C66.7416 44.7035 70.0055 44.021 72.518 42.1364C73.6855 41.2615 74.6686 40.1399 76.0084 39.5191C78.5906 38.3229 81.6637 39.2969 84.5415 39.1893C89.8731 38.9897 94.373 35.0643 99.6873 34.623C104.028 34.2618 108.168 36.2707 112.484 36.8321C119.294 37.7173 126.813 35.0708 132.806 38.2326C134.841 39.3061 136.523 40.9916 138.737 41.6838C141.068 42.4117 143.618 41.925 146.059 42.1857C152.94 42.9189 157.467 49.1653 163.563 52.2493C165.327 53.1421 167.266 53.7895 168.776 55.0256C172.272 57.8885 173.608 63.8018 178.245 63.9635" stroke="white" stroke-opacity="0.8" stroke-width="2"/>
<path d="M46.1339 62.3109C43.9415 58.0344 44.2786 55.5274 45.0551 54.0083C45.6689 52.8073 46.6256 51.5694 48.3351 48.719C48.6966 48.1155 49.0482 47.3892 49.3743 46.438C50.5624 42.9759 49.619 38.7119 52.2759 36.0474C53.8557 34.4635 56.3945 33.8643 57.7773 32.1284C58.7962 30.8489 59.002 29.1833 59.5053 27.6616C60.5794 24.4142 63.0503 21.7557 65.4578 19.2011L68.0199 16.4821C70.0106 14.3698 72.3757 12.0877 75.3952 12.0487C78.5897 12.0071 81.0309 14.9571 83.7028 18.2888C85.7337 20.8213 88.5259 24.9701 90.3929 30.9333" stroke="white" stroke-opacity="0.8" stroke-width="2"/>
<path d="M248.98 59.7111C244.9 55.1661 243.474 51.1752 242.963 48.2562C242.471 45.4429 242.747 42.613 240.431 40.7201C238.977 39.5312 236.787 39.5275 235.142 38.5789C231.253 36.3368 232.412 30.5468 229.583 27.1992C227.368 24.5781 223.276 24.0912 220.546 21.934C217.151 19.2515 216.301 14.3578 212.581 12.08C206.979 8.64958 198.351 13.1354 193.179 9.15992C191.143 7.59419 189.939 4.86311 187.36 4.33622C185.329 3.92089 183.463 5.06383 181.873 6.15818C175.562 10.5036 170.74 17.737 168.387 21.6286" stroke="white" stroke-opacity="0.8" stroke-width="2"/>
<path d="M173.278 13.2623C173.017 11.1553 173.72 9.03371 173.563 6.91787C173.407 4.80255 171.871 2.44848 169.492 2.42085C167.941 2.40261 166.616 3.37374 165.13 3.76938C161.573 4.71758 158.063 2.29627 154.397 1.76613C148.272 0.87997 142.336 5.35092 136.22 4.41316C133.048 3.92681 130.144 2.00488 126.941 2.28324C122.991 2.62571 120.268 6.15368 116.423 7.03255C110.497 8.38681 104.11 3.0813 98.5519 5.35874C97.0265 5.98427 95.8342 7.11126 94.3851 7.86711C91.7292 9.25213 88.4154 9.29539 85.7052 10.5934C82.9951 11.8919 81.3134 15.6669 83.8273 17.2479" stroke="white" stroke-opacity="0.8" stroke-width="2"/>
<path d="M188.124 47.5788C189.384 44.4063 191.101 38.5985 189.214 32.6776C188.138 29.3003 186.704 28.3039 186.082 28.0328C183.87 27.0698 181.244 28.2581 178.846 27.8415C174.767 27.1339 172.841 22.218 168.837 21.1979C167.131 20.763 165.32 21.1203 163.554 21.04C158.638 20.8163 154.275 17.2326 149.37 17.6002C147.588 17.7338 145.885 18.3913 144.103 18.5255C141.196 18.7443 138.406 17.5673 135.569 16.9319C130.708 15.8433 125.454 16.3822 120.957 18.4301C119.672 21.2136 119.003 24.2138 118.991 27.2481C118.981 30.4665 119.709 33.649 121.126 36.5787" stroke="white" stroke-opacity="0.8" stroke-width="2"/>
<path d="M118.991 31.318C117.141 28.47 114.849 25.9019 112.193 23.7002C110.303 22.136 107.483 20.751 105.478 22.1758C104.855 22.6186 104.432 23.2727 103.877 23.7933C102.097 25.4643 99.3426 25.5122 96.8775 25.8041C94.4118 26.0971 91.5696 27.1287 91.023 29.4668C90.9115 29.945 90.9058 30.4569 90.6701 30.8915C90.2718 31.6246 89.3631 31.9116 88.5884 32.2689C85.9773 33.4709 84.2323 36.2426 84.3306 39.0333L84.8123 39.7794" stroke="white" stroke-opacity="0.8" stroke-width="2"/>
<path d="M190.109 36.7325C190.902 35.2752 190.976 33.556 191.595 32.0229C192.213 30.4893 193.789 29.0341 195.45 29.4533C196.094 29.6157 196.631 30.0361 197.121 30.4684C199.263 32.3562 200.956 34.6623 202.085 37.2308C202.399 37.9463 202.682 38.7008 203.239 39.2654C205.587 41.6452 209.771 38.7617 213.107 39.4821C215.155 39.9249 216.555 41.6611 218.002 43.1174C218.499 43.6172 219.068 44.1056 219.682 44.5056C220.78 45.2217 220.545 46.8426 219.268 47.1915C216.686 47.8961 213.906 47.9482 211.31 47.2859C209.556 46.8387 207.78 46.076 205.998 46.4113C203.92 46.8025 202.454 48.5716 200.553 49.467C194.379 52.3769 187.068 45.2837 180.547 47.3896C179.353 47.7754 178.276 48.4563 177.062 48.7823C171.336 50.3225 165.391 43.6238 159.962 45.9482C159.97 45.9043 159.975 45.8461 159.949 45.8335C159.827 45.772 157.222 47.5575 155.388 46.3981" stroke="white" stroke-opacity="0.8" stroke-width="2"/>
<path d="M220.251 44.979C220.765 47.2513 219.729 49.7985 217.783 51.0452" stroke="white" stroke-opacity="0.8" stroke-width="2"/>
<path d="M147.588 117.773C154.134 117.595 161.004 117.333 166.628 114.209C173.863 110.19 177.409 102.424 181.652 95.6455C186.967 87.1664 193.929 79.6827 202.184 73.5767" stroke="white" stroke-opacity="0.8" stroke-width="2"/>
<path d="M190.918 15.5147C187.703 18.6484 186.061 23.7516 186.734 28.5137" stroke="white" stroke-opacity="0.8" stroke-width="2"/>
<path d="M173.586 48.4454C176.819 44.9713 177.942 39.2529 176.309 34.5798" stroke="white" stroke-opacity="0.8" stroke-width="2"/>
<path d="M133.723 38.9128C130.71 35.1266 130.278 30.0142 132.624 25.9139" stroke="white" stroke-opacity="0.8" stroke-width="2"/>
<path d="M182.252 61.4443C183.271 59.2657 183.859 56.912 183.985 54.5116" stroke="white" stroke-opacity="0.8" stroke-width="2"/>
<path d="M101.659 25.0472C98.1227 22.9925 96.0673 19.1777 96.5215 15.5147" stroke="white" stroke-opacity="0.8" stroke-width="2"/>
<path d="M71.3278 42.3792C68.1439 41.4664 65.345 39.6002 63.5284 37.1796" stroke="white" stroke-opacity="0.8" stroke-width="2"/>
<path d="M131.123 91.7752C130.618 89.9923 128.806 88.8969 127.405 87.6176C123.302 83.8739 122.427 78.0432 119.934 73.1846C117.537 68.5148 113.484 64.6293 108.591 62.3109" stroke="white" stroke-opacity="0.8" stroke-width="2"/>
<path d="M138.922 360.42C137.915 373.972 137.337 387.557 137.189 401.15" stroke="white" stroke-opacity="0.8" stroke-width="2"/>
<path d="M144.122 304.091V305.825" stroke="white" stroke-opacity="0.8" stroke-width="2"/>
<path d="M145.855 284.16C145.602 287.345 145.309 290.522 144.988 293.692" stroke="white" stroke-opacity="0.8" stroke-width="2"/>
<path d="M125.923 112.574C136.978 123.163 140.551 147.869 142.567 169.888C145.92 206.505 148.036 243.823 145.795 280.693" stroke="white" stroke-opacity="0.8" stroke-width="2"/>
<path d="M173.586 112.574C167.11 115.598 162.116 124.208 159.308 133.934C156.5 143.659 155.608 154.475 155.082 165.137C154.263 181.766 154.257 198.54 155.628 215.077C156.579 226.545 158.192 237.929 158.255 249.496" stroke="white" stroke-opacity="0.8" stroke-width="2"/>
<path d="M236.852 184.501C241.722 180.22 243.937 173.442 242.464 167.33C240.99 161.218 235.883 155.999 229.526 154.108C223.168 152.217 215.796 153.725 210.85 157.928" stroke="white" stroke-opacity="0.8" stroke-width="2"/>
<path d="M262.846 111.707C269.651 113.39 273.88 115.788 276.537 117.76C277.288 118.317 277.986 118.894 280.925 121.13C286.91 125.684 286.901 125.488 288.068 126.518C292.514 130.439 291.023 131.864 295.293 136.115C299.67 140.472 301.624 139.502 303.884 142.977C305.795 145.916 304.867 149.837 306.469 152.934C307.913 155.727 311.294 157.612 311.778 160.681C312.105 162.759 310.973 164.797 310.883 166.896C310.656 172.168 316.888 176.681 315.508 181.797C315.118 183.245 314.136 184.512 313.783 185.968C312.908 189.583 315.914 193.95 313.355 196.779C311.482 198.849 307.864 198.456 305.515 200.044C303.604 201.337 302.603 203.886 300.3 204.359C297.474 204.939 294.758 201.892 291.998 202.704C291.118 202.963 290.391 203.594 289.489 203.776C287.326 204.213 285.489 202.244 284.723 201.633C282.777 200.083 278.869 199.072 270.25 201.457" stroke="white" stroke-opacity="0.8" stroke-width="2"/>
<path d="M222.016 210.499C223.939 208.696 225.122 207.02 225.849 205.819C227.609 202.912 227.611 200.978 229.642 200.243C230.778 199.833 232.246 199.891 232.94 198.957C233.465 198.251 233.277 197.306 233.275 196.448C233.27 194.738 234.141 193.043 235.574 191.976C237.025 190.897 239.131 190.282 239.418 188.435C239.56 187.525 239.174 186.623 238.519 185.936C237.069 184.416 234.944 184.016 233.134 183.075C229.385 181.127 227.454 177.187 224.569 174.222C221.806 171.382 218.097 169.386 215.656 166.3C213.559 163.649 212.549 160.378 210.613 157.622C208.619 154.783 205.735 152.613 203.074 150.297C198.68 146.472 194.812 142.159 190.956 137.859C188.886 135.551 186.752 133.126 186.014 130.195C184.571 124.455 188.832 118.708 189.697 112.963C190.11 110.223 192.363 108.038 195.262 107.454L202.481 103.041" stroke="white" stroke-opacity="0.8" stroke-width="2"/>
<path d="M241.792 162.836C247.574 161.069 250.761 154.284 256.814 153.673C259.663 153.386 262.571 154.603 265.36 153.994C269.026 153.194 271.417 149.474 275.146 148.981C277.433 148.679 279.799 149.681 282.036 149.147C284.502 148.558 286.339 146.201 288.886 146.213C289.992 146.218 291.034 146.689 292.13 146.826C293.227 146.963 294.575 146.587 294.857 145.596C295.009 145.06 294.803 144.499 294.599 143.977C292.899 139.621 291.086 135.102 287.475 131.897C285.45 130.098 282.907 128.764 281.304 126.631C280.252 125.233 279.565 123.463 277.949 122.646C276.86 122.096 275.526 122.089 274.434 121.543C272.495 120.574 271.919 118.298 270.657 116.625C269.133 114.603 266.599 113.483 264.18 112.451L251.705 107.128C247.611 105.382 243.376 103.603 238.87 103.488C236.724 103.434 234.58 103.762 232.436 103.661C230.286 103.56 228.19 103.03 226.086 102.604C219.917 101.361 213.577 101.009 207.292 101.561C205.467 101.721 203.521 102.013 202.19 103.18C200.476 104.683 200.317 107.129 199.254 109.082C198.033 111.326 195.54 113.061 195.274 115.562C195.036 117.812 196.712 119.841 197.124 122.069C197.801 125.724 195.02 129.352 195.636 133.016C195.953 134.899 197.132 136.546 197.904 138.312C199.14 141.14 199.315 144.356 198.393 147.285" stroke="white" stroke-opacity="0.8" stroke-width="2"/>
<path d="M314.531 194.174C315.11 195.562 316.578 199.629 314.999 204.332C314.204 206.7 312.911 208.409 311.953 209.464C305.169 210.178 298.308 209.855 291.634 208.509C284.997 207.166 278.641 204.83 272.319 202.504L254.847 196.074C251.241 194.747 247.32 193.399 243.584 194.358C238.909 195.557 236.111 199.893 233.495 203.726C232.2 205.626 230.777 207.54 228.734 208.725C225.986 210.319 222.436 210.403 219.806 212.163C219.149 212.603 218.673 213 218.291 213.376C216.605 215.032 215.469 216.325 215.247 216.602C214.244 217.848 211.496 219.093 203.917 219.165" stroke="white" stroke-opacity="0.8" stroke-width="2"/>
<path d="M192.88 108.241C192.574 108.44 186.228 112.602 185.49 114.918C185.367 115.306 185.255 115.74 185.255 115.74C185.112 116.299 184.957 117.137 184.776 118.963C184.155 125.209 180.73 130.978 180.077 137.222C179.523 142.51 180.99 147.83 180.636 153.133C180.343 157.512 178.82 161.739 178.227 166.092C177.408 172.095 178.377 178.172 179.343 184.157L181.749 199.061C182.413 203.176 183.254 207.616 186.493 210.464C190.229 213.75 195.999 213.902 200.418 216.335C202.869 217.685 204.889 219.731 207.544 220.685C210.831 221.866 214.522 221.182 218.007 221.656C222.516 222.27 226.493 224.795 230.949 225.689C234.634 226.428 238.456 226.018 242.198 225.606L262.604 223.356C276.67 221.805 283.595 220.281 284.471 220.074C291.16 218.5 300.628 215.43 311.375 208.835" stroke="white" stroke-opacity="0.8" stroke-width="2"/>
<mask id="path-28-inside-1_111_139" fill="white">
<path d="M248.113 176.803C247.701 177.568 247.057 178.225 246.312 178.764C245.542 179.297 244.67 179.68 243.745 179.891C242.827 180.108 241.804 180.324 240.848 180.011C239.911 179.72 239.024 179.152 238.581 178.272L238.684 178.132C239.667 178.216 240.43 178.297 241.204 178.335C241.959 178.353 242.712 178.589 243.517 178.541C244.325 178.491 245.118 178.316 245.867 178.022C246.636 177.734 247.344 177.28 247.97 176.702L248.113 176.803Z"/>
</mask>
<path d="M248.113 176.803L249.266 175.168L250.716 176.191L249.874 177.753L248.113 176.803ZM246.312 178.764L247.482 180.385L247.467 180.397L247.45 180.408L246.312 178.764ZM243.745 179.891L243.285 177.945L243.292 177.943L243.299 177.941L243.745 179.891ZM240.848 180.011L241.441 178.101L241.456 178.105L241.47 178.11L240.848 180.011ZM238.581 178.272L236.795 179.172L236.241 178.072L236.973 177.082L238.581 178.272ZM238.684 178.132L237.076 176.943L237.74 176.045L238.853 176.139L238.684 178.132ZM241.204 178.335L241.157 180.335L241.132 180.334L241.106 180.333L241.204 178.335ZM243.517 178.541L243.641 180.538L243.636 180.538L243.517 178.541ZM245.867 178.022L245.136 176.161L245.151 176.155L245.165 176.149L245.867 178.022ZM247.97 176.702L246.612 175.233L247.8 174.135L249.122 175.067L247.97 176.702ZM249.874 177.753C249.28 178.853 248.399 179.723 247.482 180.385L245.141 177.142C245.716 176.727 246.122 176.282 246.353 175.853L249.874 177.753ZM247.45 180.408C246.468 181.088 245.36 181.574 244.191 181.841L243.299 177.941C243.979 177.786 244.616 177.505 245.173 177.119L247.45 180.408ZM244.205 181.838C243.35 182.04 241.79 182.424 240.225 181.911L241.47 178.11C241.818 178.224 242.304 178.177 243.285 177.945L244.205 181.838ZM240.254 181.921C239.013 181.535 237.567 180.705 236.795 179.172L240.367 177.372C240.481 177.599 240.809 177.904 241.441 178.101L240.254 181.921ZM236.973 177.082L237.076 176.943L240.292 179.322L240.189 179.462L236.973 177.082ZM238.853 176.139C239.894 176.228 240.575 176.302 241.303 176.338L241.106 180.333C240.285 180.292 239.441 180.204 238.516 180.125L238.853 176.139ZM241.251 176.336C241.782 176.348 242.316 176.438 242.628 176.483C242.997 176.537 243.214 176.556 243.398 176.545L243.636 180.538C243.015 180.575 242.453 180.5 242.056 180.442C241.602 180.377 241.382 180.34 241.157 180.335L241.251 176.336ZM243.394 176.545C243.994 176.508 244.583 176.378 245.136 176.161L246.598 179.884C245.654 180.255 244.655 180.475 243.641 180.538L243.394 176.545ZM245.165 176.149C245.665 175.962 246.154 175.656 246.612 175.233L249.327 178.17C248.534 178.904 247.608 179.506 246.568 179.895L245.165 176.149ZM249.122 175.067L249.266 175.168L246.961 178.438L246.817 178.336L249.122 175.067Z" fill="white" fill-opacity="0.8" mask="url(#path-28-inside-1_111_139)"/>
<path d="M213.695 156.195C213.739 156.273 213.791 156.356 213.855 156.453C213.855 156.452 213.854 156.451 213.854 156.449C213.839 156.235 213.814 156.169 213.793 156.131L213.775 156.1L213.76 156.068C213.711 155.965 213.654 155.861 213.589 155.758C213.586 155.794 213.585 155.831 213.584 155.868L213.584 155.891L213.583 155.913C213.583 155.921 213.582 155.992 213.695 156.195Z" stroke="white" stroke-opacity="0.8" stroke-width="2"/>
<mask id="path-31-inside-2_111_139" fill="white">
<path d="M231.648 162.692C232.415 162.09 233.152 161.468 233.818 160.778C234.488 160.105 235.116 159.391 235.697 158.639C236.277 157.887 236.671 157.019 237.279 156.31C237.576 155.938 237.888 155.578 238.213 155.231C238.538 154.871 238.88 154.513 239.297 154.17L239.447 154.24C239.456 154.786 239.362 155.303 239.223 155.802C239.08 156.297 238.888 156.777 238.649 157.233C238.189 158.158 237.39 158.839 236.67 159.537C235.949 160.237 235.167 160.87 234.334 161.427C233.497 161.968 232.637 162.46 231.73 162.836L231.648 162.692Z"/>
</mask>
<path d="M231.648 162.692L229.907 163.675L229.062 162.179L230.413 161.118L231.648 162.692ZM233.818 160.778L232.38 159.388L232.39 159.378L232.401 159.367L233.818 160.778ZM235.697 158.639L237.281 159.86L237.279 159.862L235.697 158.639ZM237.279 156.31L238.843 157.558L238.82 157.586L238.796 157.614L237.279 156.31ZM238.213 155.231L239.698 156.571L239.685 156.585L239.672 156.599L238.213 155.231ZM239.297 154.17L238.027 152.626L238.999 151.826L240.14 152.356L239.297 154.17ZM239.447 154.24L240.29 152.426L241.425 152.954L241.447 154.206L239.447 154.24ZM239.223 155.802L241.149 156.341L241.147 156.348L241.144 156.356L239.223 155.802ZM238.649 157.233L236.857 156.343L236.867 156.324L236.877 156.305L238.649 157.233ZM236.67 159.537L235.276 158.103L235.278 158.101L236.67 159.537ZM234.334 161.427L235.446 163.089L235.434 163.098L235.421 163.106L234.334 161.427ZM231.73 162.836L232.496 164.683L230.859 165.362L229.988 163.82L231.73 162.836ZM230.413 161.118C231.148 160.541 231.805 159.984 232.38 159.388L235.257 162.168C234.499 162.952 233.682 163.638 232.883 164.265L230.413 161.118ZM232.401 159.367C233.012 158.754 233.584 158.102 234.115 157.415L237.279 159.862C236.647 160.68 235.964 161.457 235.236 162.189L232.401 159.367ZM234.114 157.417C234.325 157.143 234.507 156.843 234.776 156.407C235.022 156.009 235.345 155.493 235.762 155.007L238.796 157.614C238.605 157.836 238.427 158.108 238.179 158.51C237.954 158.873 237.649 159.383 237.281 159.86L234.114 157.417ZM235.716 155.063C236.046 154.65 236.392 154.249 236.754 153.864L239.672 156.599C239.383 156.907 239.107 157.227 238.843 157.558L235.716 155.063ZM236.727 153.892C237.079 153.502 237.498 153.061 238.027 152.626L240.568 155.715C240.263 155.966 239.997 156.239 239.698 156.571L236.727 153.892ZM240.14 152.356L240.29 152.426L238.604 156.053L238.455 155.984L240.14 152.356ZM241.447 154.206C241.46 155.004 241.322 155.722 241.149 156.341L237.297 155.263C237.403 154.883 237.452 154.568 237.447 154.274L241.447 154.206ZM241.144 156.356C240.964 156.981 240.722 157.585 240.42 158.161L236.877 156.305C237.053 155.968 237.195 155.614 237.301 155.248L241.144 156.356ZM240.44 158.122C239.786 159.439 238.637 160.416 238.061 160.974L235.278 158.101C236.144 157.262 236.592 156.878 236.857 156.343L240.44 158.122ZM238.063 160.972C237.256 161.756 236.38 162.465 235.446 163.089L233.222 159.765C233.955 159.275 234.642 158.719 235.276 158.103L238.063 160.972ZM235.421 163.106C234.527 163.684 233.555 164.244 232.496 164.683L230.963 160.989C231.719 160.675 232.468 160.252 233.248 159.748L235.421 163.106ZM229.988 163.82L229.907 163.675L233.39 161.708L233.471 161.853L229.988 163.82Z" fill="white" fill-opacity="0.8" mask="url(#path-31-inside-2_111_139)"/>
<mask id="path-33-inside-3_111_139" fill="white">
<path d="M227.464 161.095C227.378 160.355 227.35 159.613 227.321 158.864C227.305 158.116 227.321 157.367 227.368 156.621C227.414 155.875 227.353 155.092 227.603 154.389C227.719 154.036 227.861 153.692 228.044 153.364C228.224 153.035 228.435 152.719 228.723 152.437L228.863 152.485C228.975 152.905 229.016 153.294 229.034 153.672C229.059 154.052 229.049 154.418 229.021 154.777C228.988 155.5 228.681 156.153 228.516 156.85C228.352 157.55 228.195 158.252 228.045 158.956C227.881 159.663 227.755 160.381 227.61 161.103L227.464 161.095Z"/>
</mask>
<path d="M227.464 161.095L227.355 163.092L225.673 163L225.478 161.327L227.464 161.095ZM227.321 158.864L225.323 158.942L225.322 158.925L225.322 158.908L227.321 158.864ZM227.368 156.621L229.364 156.743L229.364 156.747L227.368 156.621ZM227.603 154.389L229.504 155.011L229.496 155.036L229.487 155.06L227.603 154.389ZM228.044 153.364L229.8 154.323L229.794 154.332L229.789 154.341L228.044 153.364ZM228.723 152.437L227.326 151.006L228.21 150.143L229.377 150.547L228.723 152.437ZM228.863 152.485L229.517 150.595L230.523 150.943L230.796 151.971L228.863 152.485ZM229.034 153.672L227.038 153.802L227.037 153.786L227.036 153.769L229.034 153.672ZM229.021 154.777L227.024 154.686L227.025 154.655L227.027 154.623L229.021 154.777ZM228.516 156.85L226.569 156.395L226.57 156.391L228.516 156.85ZM228.045 158.956L230.001 159.374L229.997 159.392L229.993 159.41L228.045 158.956ZM227.61 161.103L229.57 161.498L229.228 163.194L227.5 163.1L227.61 161.103ZM225.478 161.327C225.381 160.496 225.351 159.673 225.323 158.942L229.32 158.786C229.35 159.552 229.375 160.214 229.451 160.863L225.478 161.327ZM225.322 158.908C225.304 158.103 225.321 157.297 225.372 156.494L229.364 156.747C229.32 157.437 229.306 158.129 229.321 158.821L225.322 158.908ZM225.372 156.499C225.381 156.355 225.385 156.202 225.389 156.008C225.394 155.825 225.399 155.601 225.412 155.373C225.439 154.92 225.501 154.33 225.719 153.718L229.487 155.06C229.455 155.151 229.423 155.305 229.406 155.605C229.397 155.754 229.393 155.909 229.388 156.106C229.384 156.29 229.378 156.514 229.364 156.743L225.372 156.499ZM225.703 153.767C225.849 153.321 226.039 152.852 226.299 152.387L229.789 154.341C229.683 154.531 229.589 154.751 229.504 155.011L225.703 153.767ZM226.289 152.405C226.526 151.972 226.848 151.473 227.326 151.006L230.121 153.868C230.022 153.964 229.922 154.098 229.8 154.323L226.289 152.405ZM229.377 150.547L229.517 150.595L228.209 154.375L228.069 154.327L229.377 150.547ZM230.796 151.971C230.957 152.576 231.009 153.117 231.032 153.574L227.036 153.769C227.022 153.471 226.993 153.235 226.93 152.999L230.796 151.971ZM231.03 153.542C231.062 154.04 231.048 154.503 231.016 154.931L227.027 154.623C227.05 154.332 227.055 154.065 227.038 153.802L231.03 153.542ZM231.019 154.868C230.992 155.477 230.85 156.007 230.735 156.395C230.597 156.858 230.528 157.033 230.463 157.309L226.57 156.391C226.669 155.97 226.836 155.47 226.902 155.251C226.989 154.957 227.018 154.8 227.024 154.686L231.019 154.868ZM230.464 157.306C230.303 157.993 230.149 158.682 230.001 159.374L226.089 158.539C226.242 157.822 226.402 157.107 226.569 156.395L230.464 157.306ZM229.993 159.41C229.837 160.081 229.73 160.705 229.57 161.498L225.649 160.708C225.78 160.057 225.924 159.245 226.097 158.503L229.993 159.41ZM227.5 163.1L227.355 163.092L227.573 159.098L227.719 159.106L227.5 163.1Z" fill="white" fill-opacity="0.8" mask="url(#path-33-inside-3_111_139)"/>
<mask id="path-35-inside-4_111_139" fill="white">
<path d="M221.959 159.37C221.517 158.821 221.155 158.223 220.811 157.609C220.479 156.986 220.205 156.339 219.991 155.674C219.775 155.011 219.45 154.335 219.528 153.624C219.554 153.267 219.628 152.915 219.747 152.574C219.87 152.229 220.036 151.89 220.305 151.57L220.478 151.581C220.681 151.894 220.845 152.227 220.967 152.574C221.095 152.895 221.186 153.208 221.258 153.52C221.43 154.139 221.291 154.786 221.353 155.431C221.415 156.07 221.508 156.714 221.634 157.359C221.745 158.009 221.927 158.649 222.116 159.301L221.959 159.37Z"/>
</mask>
<path d="M221.959 159.37L222.765 161.2L221.363 161.818L220.401 160.624L221.959 159.37ZM220.811 157.609L219.066 158.588L219.055 158.568L219.045 158.549L220.811 157.609ZM219.991 155.674L221.893 155.056L221.895 155.062L219.991 155.674ZM219.528 153.624L221.522 153.772L221.519 153.807L221.516 153.842L219.528 153.624ZM219.747 152.574L217.86 151.913L217.862 151.905L219.747 152.574ZM220.305 151.57L218.775 150.283L219.423 149.512L220.428 149.574L220.305 151.57ZM220.478 151.581L220.601 149.585L221.609 149.647L222.158 150.495L220.478 151.581ZM220.967 152.574L219.11 153.316L219.095 153.278L219.081 153.24L220.967 152.574ZM221.258 153.52L219.331 154.057L219.319 154.014L219.309 153.971L221.258 153.52ZM221.353 155.431L219.362 155.623L219.362 155.62L221.353 155.431ZM221.634 157.359L223.597 156.974L223.601 156.998L223.606 157.023L221.634 157.359ZM222.116 159.301L224.037 158.745L224.523 160.426L222.922 161.131L222.116 159.301ZM220.401 160.624C219.854 159.945 219.428 159.232 219.066 158.588L222.555 156.631C222.882 157.215 223.18 157.698 223.517 158.115L220.401 160.624ZM219.045 158.549C218.658 157.822 218.338 157.066 218.087 156.287L221.895 155.062C222.072 155.612 222.3 156.15 222.576 156.67L219.045 158.549ZM218.089 156.292C218.059 156.2 217.822 155.546 217.728 155.223C217.595 154.762 217.46 154.129 217.54 153.406L221.516 153.842C221.517 153.83 221.506 153.89 221.57 154.111C221.602 154.22 221.643 154.341 221.701 154.504C221.753 154.65 221.828 154.856 221.893 155.056L218.089 156.292ZM217.533 153.476C217.573 152.942 217.683 152.417 217.86 151.913L221.635 153.236C221.573 153.412 221.535 153.592 221.522 153.772L217.533 153.476ZM217.862 151.905C218.041 151.403 218.311 150.835 218.775 150.283L221.836 152.858C221.762 152.946 221.699 153.055 221.632 153.243L217.862 151.905ZM220.428 149.574L220.601 149.585L220.356 153.577L220.183 153.567L220.428 149.574ZM222.158 150.495C222.444 150.938 222.678 151.411 222.853 151.907L219.081 153.24C219.012 153.043 218.918 152.851 218.799 152.667L222.158 150.495ZM222.824 151.832C223 152.271 223.118 152.687 223.206 153.069L219.309 153.971C219.253 153.73 219.191 153.518 219.11 153.316L222.824 151.832ZM223.185 152.984C223.352 153.587 223.353 154.146 223.347 154.5C223.339 154.935 223.327 155.067 223.344 155.242L219.362 155.62C219.317 155.15 219.344 154.636 219.347 154.432C219.352 154.147 219.336 154.073 219.331 154.057L223.185 152.984ZM223.343 155.238C223.399 155.814 223.483 156.394 223.597 156.974L219.671 157.744C219.532 157.034 219.43 156.326 219.362 155.623L223.343 155.238ZM223.606 157.023C223.695 157.546 223.845 158.082 224.037 158.745L220.194 159.856C220.009 159.216 219.795 158.473 219.663 157.696L223.606 157.023ZM222.922 161.131L222.765 161.2L221.153 157.54L221.309 157.471L222.922 161.131Z" fill="white" fill-opacity="0.8" mask="url(#path-35-inside-4_111_139)"/>
<mask id="path-37-inside-5_111_139" fill="white">
<path d="M236.848 172.497C236.573 172.996 236.166 173.423 235.706 173.802C235.227 174.174 234.686 174.458 234.108 174.641C233.535 174.828 232.889 175.103 232.263 174.893C231.655 174.704 231.066 174.324 230.781 173.626L230.859 173.458C231.548 173.215 232.012 173.122 232.471 173.053C232.914 172.964 233.354 173.194 233.837 173.185C234.309 173.176 234.795 173.111 235.279 172.981C235.772 172.864 236.244 172.645 236.714 172.369L236.848 172.497Z"/>
</mask>
<path d="M236.848 172.497L238.235 171.057L239.338 172.119L238.6 173.461L236.848 172.497ZM235.706 173.802L236.978 175.345L236.955 175.364L236.931 175.383L235.706 173.802ZM234.108 174.641L233.488 172.74L233.495 172.738L233.502 172.736L234.108 174.641ZM232.263 174.893L232.854 172.982L232.877 172.989L232.9 172.997L232.263 174.893ZM230.781 173.626L228.93 174.381L228.601 173.575L228.967 172.785L230.781 173.626ZM230.859 173.458L229.044 172.618L229.399 171.852L230.195 171.571L230.859 173.458ZM232.471 173.053L232.867 175.013L232.817 175.024L232.766 175.031L232.471 173.053ZM233.837 173.185L233.877 175.185L233.876 175.185L233.837 173.185ZM235.279 172.981L234.76 171.049L234.788 171.042L234.817 171.035L235.279 172.981ZM236.714 172.369L235.701 170.644L237.009 169.876L238.102 170.928L236.714 172.369ZM238.6 173.461C238.159 174.263 237.547 174.876 236.978 175.345L234.433 172.259C234.785 171.969 234.987 171.73 235.095 171.533L238.6 173.461ZM236.931 175.383C236.266 175.898 235.516 176.293 234.714 176.547L233.502 172.736C233.856 172.623 234.187 172.449 234.48 172.222L236.931 175.383ZM234.729 176.543C234.564 176.597 234.07 176.778 233.619 176.873C233.113 176.98 232.401 177.049 231.626 176.788L232.9 172.997C232.751 172.947 232.676 172.984 232.793 172.959C232.851 172.947 232.93 172.925 233.051 172.886C233.112 172.867 233.174 172.846 233.248 172.82C233.318 172.797 233.403 172.768 233.488 172.74L234.729 176.543ZM231.672 176.803C230.703 176.503 229.513 175.81 228.93 174.381L232.633 172.87C232.637 172.879 232.638 172.879 232.636 172.876C232.634 172.874 232.636 172.877 232.646 172.885C232.67 172.905 232.733 172.945 232.854 172.982L231.672 176.803ZM228.967 172.785L229.044 172.618L232.674 174.298L232.596 174.466L228.967 172.785ZM230.195 171.571C231.022 171.28 231.611 171.159 232.176 171.075L232.766 175.031C232.412 175.084 232.074 175.15 231.523 175.344L230.195 171.571ZM232.075 171.093C232.729 170.961 233.304 171.082 233.533 171.128C233.868 171.196 233.832 171.185 233.799 171.186L233.876 175.185C233.592 175.19 233.346 175.16 233.16 175.13C232.996 175.103 232.809 175.063 232.745 175.05C232.522 175.005 232.656 175.056 232.867 175.013L232.075 171.093ZM233.798 171.186C234.114 171.179 234.438 171.136 234.76 171.049L235.798 174.912C235.151 175.086 234.504 175.172 233.877 175.185L233.798 171.186ZM234.817 171.035C235.049 170.98 235.329 170.863 235.701 170.644L237.727 174.093C237.158 174.428 236.496 174.747 235.741 174.927L234.817 171.035ZM238.102 170.928L238.235 171.057L235.46 173.937L235.327 173.809L238.102 170.928Z" fill="white" fill-opacity="0.8" mask="url(#path-37-inside-5_111_139)"/>
<mask id="path-39-inside-6_111_139" fill="white">
<path d="M229.048 165.595C228.644 165.91 228.264 166.223 227.939 166.587C227.615 166.929 227.317 167.296 227.047 167.683C226.778 168.067 226.691 168.55 226.351 168.849C225.969 169.227 225.527 169.537 225.043 169.769L224.883 169.709C224.616 169.064 224.702 168.46 224.904 167.928C225.099 167.377 225.635 167.066 226.061 166.726C226.488 166.383 226.956 166.097 227.456 165.876C227.957 165.671 228.462 165.501 228.983 165.436L229.048 165.595Z"/>
</mask>
<path d="M229.048 165.595L230.899 164.838L231.474 166.241L230.277 167.173L229.048 165.595ZM227.939 166.587L229.432 167.918L229.412 167.941L229.391 167.962L227.939 166.587ZM227.047 167.683L228.687 168.827L228.686 168.829L227.047 167.683ZM226.351 168.849L224.946 167.426L224.987 167.385L225.03 167.347L226.351 168.849ZM225.043 169.769L225.907 171.573L225.141 171.94L224.346 171.643L225.043 169.769ZM224.883 169.709L224.185 171.584L223.368 171.28L223.035 170.474L224.883 169.709ZM224.904 167.928L226.789 168.596L226.782 168.617L226.774 168.638L224.904 167.928ZM226.061 166.726L227.314 168.285L227.308 168.29L226.061 166.726ZM227.456 165.876L226.645 164.047L226.673 164.035L226.701 164.024L227.456 165.876ZM228.983 165.436L228.734 163.452L230.254 163.261L230.834 164.679L228.983 165.436ZM230.277 167.173C229.887 167.476 229.629 167.697 229.432 167.918L226.447 165.255C226.899 164.749 227.4 164.344 227.819 164.017L230.277 167.173ZM229.391 167.962C229.136 168.232 228.9 168.521 228.687 168.827L225.406 166.539C225.733 166.07 226.094 165.626 226.487 165.212L229.391 167.962ZM228.686 168.829C228.7 168.808 228.695 168.811 228.666 168.869C228.616 168.972 228.62 168.97 228.533 169.155C228.419 169.394 228.169 169.914 227.672 170.351L225.03 167.347C224.873 167.486 224.836 167.615 224.919 167.441C224.937 167.401 224.954 167.364 224.983 167.303C225.008 167.248 225.041 167.177 225.078 167.101C225.152 166.951 225.259 166.749 225.407 166.537L228.686 168.829ZM227.756 170.273C227.216 170.806 226.591 171.245 225.907 171.573L224.179 167.965C224.462 167.83 224.721 167.648 224.946 167.426L227.756 170.273ZM224.346 171.643L224.185 171.584L225.581 167.835L225.741 167.895L224.346 171.643ZM223.035 170.474C222.512 169.212 222.717 168.054 223.034 167.218L226.774 168.638C226.727 168.761 226.717 168.832 226.716 168.866C226.715 168.882 226.716 168.892 226.717 168.9C226.718 168.907 226.721 168.921 226.731 168.944L223.035 170.474ZM223.019 167.26C223.273 166.542 223.725 166.059 224.063 165.757C224.307 165.538 224.792 165.18 224.814 165.162L227.308 168.29C227.174 168.396 227.015 168.513 226.934 168.575C226.831 168.653 226.771 168.701 226.729 168.739C226.644 168.815 226.73 168.763 226.789 168.596L223.019 167.26ZM224.808 165.167C225.369 164.716 225.987 164.339 226.645 164.047L228.267 167.704C227.926 167.855 227.606 168.05 227.314 168.285L224.808 165.167ZM226.701 164.024C227.264 163.794 227.958 163.549 228.734 163.452L229.232 167.42C228.967 167.454 228.65 167.549 228.211 167.728L226.701 164.024ZM230.834 164.679L230.899 164.838L227.197 166.352L227.132 166.193L230.834 164.679Z" fill="white" fill-opacity="0.8" mask="url(#path-39-inside-6_111_139)"/>
<mask id="path-41-inside-7_111_139" fill="white">
<path d="M223.849 161.182C223.74 161.573 223.611 161.943 223.525 162.326C223.423 162.701 223.329 163.071 223.239 163.438C223.149 163.806 223.236 164.213 222.983 164.525C222.863 164.697 222.717 164.854 222.549 164.993C222.349 165.17 222.119 165.319 221.865 165.436L221.689 165.403C221.512 165.2 221.387 164.968 221.32 164.722C221.258 164.512 221.236 164.294 221.256 164.078C221.267 163.654 221.654 163.333 221.897 162.986C222.141 162.636 222.415 162.302 222.715 161.986C223.03 161.678 223.336 161.372 223.694 161.103L223.849 161.182Z"/>
</mask>
<path d="M223.849 161.182L224.756 159.399L226.212 160.14L225.776 161.715L223.849 161.182ZM223.525 162.326L225.476 162.765L225.467 162.805L225.456 162.845L223.525 162.326ZM223.239 163.438L225.182 163.913L225.181 163.916L223.239 163.438ZM222.983 164.525L221.341 163.382L221.383 163.322L221.429 163.265L222.983 164.525ZM222.549 164.993L221.226 163.494L221.249 163.473L221.274 163.453L222.549 164.993ZM221.865 165.436L222.704 167.251L222.127 167.518L221.502 167.403L221.865 165.436ZM221.689 165.403L221.325 167.37L220.637 167.243L220.178 166.714L221.689 165.403ZM221.32 164.722L223.238 164.152L223.245 164.176L223.251 164.2L221.32 164.722ZM221.256 164.078L223.255 164.129L223.254 164.195L223.248 164.261L221.256 164.078ZM221.897 162.986L223.537 164.13L223.536 164.132L221.897 162.986ZM222.715 161.986L221.268 160.606L221.291 160.582L221.315 160.559L222.715 161.986ZM223.694 161.103L222.493 159.504L223.49 158.755L224.601 159.321L223.694 161.103ZM225.776 161.715C225.614 162.303 225.553 162.421 225.476 162.765L221.573 161.887C221.668 161.466 221.867 160.843 221.921 160.648L225.776 161.715ZM225.456 162.845C225.359 163.205 225.268 163.56 225.182 163.913L221.297 162.962C221.39 162.583 221.488 162.198 221.593 161.806L225.456 162.845ZM225.181 163.916C225.195 163.861 225.194 163.837 225.188 163.899C225.185 163.932 225.184 163.958 225.179 164.02C225.174 164.073 225.168 164.147 225.159 164.228C225.123 164.544 225.023 165.184 224.536 165.785L221.429 163.265C221.317 163.404 221.252 163.544 221.217 163.651C221.186 163.745 221.182 163.804 221.185 163.777C221.186 163.764 221.188 163.744 221.191 163.702C221.194 163.67 221.199 163.6 221.205 163.539C221.216 163.411 221.239 163.198 221.298 162.959L225.181 163.916ZM224.624 165.668C224.396 165.995 224.126 166.285 223.824 166.534L221.274 163.453C221.309 163.424 221.33 163.399 221.341 163.382L224.624 165.668ZM223.872 166.493C223.52 166.803 223.125 167.057 222.704 167.251L221.027 163.62C221.112 163.581 221.178 163.536 221.226 163.494L223.872 166.493ZM221.502 167.403L221.325 167.37L222.052 163.437L222.229 163.469L221.502 167.403ZM220.178 166.714C219.815 166.296 219.539 165.797 219.39 165.244L223.251 164.2C223.235 164.139 223.209 164.104 223.199 164.092L220.178 166.714ZM219.403 165.292C219.269 164.84 219.221 164.368 219.264 163.896L223.248 164.261C223.251 164.221 223.247 164.183 223.238 164.152L219.403 165.292ZM219.257 164.027C219.278 163.206 219.663 162.614 219.872 162.327C219.979 162.179 220.095 162.041 220.153 161.971C220.229 161.879 220.249 161.852 220.258 161.84L223.536 164.132C223.476 164.217 223.418 164.293 223.369 164.355C223.321 164.416 223.274 164.474 223.238 164.516C223.199 164.564 223.174 164.594 223.149 164.625C223.126 164.653 223.114 164.67 223.107 164.679C223.09 164.702 223.122 164.664 223.159 164.578C223.2 164.484 223.25 164.329 223.255 164.129L219.257 164.027ZM220.257 161.841C220.56 161.406 220.899 160.993 221.268 160.606L224.163 163.367C223.931 163.61 223.722 163.865 223.537 164.13L220.257 161.841ZM221.315 160.559C221.602 160.277 222.008 159.868 222.493 159.504L224.895 162.702C224.664 162.876 224.458 163.079 224.116 163.414L221.315 160.559ZM224.601 159.321L224.756 159.399L222.942 162.964L222.787 162.885L224.601 159.321Z" fill="white" fill-opacity="0.8" mask="url(#path-41-inside-7_111_139)"/>
<mask id="path-43-inside-8_111_139" fill="white">
<path d="M237.714 178.737C237.298 178.944 236.841 179.072 236.369 179.181C235.889 179.276 235.398 179.315 234.908 179.297C234.42 179.282 233.86 179.357 233.433 179.075C233.012 178.81 232.638 178.438 232.515 177.841L232.608 177.707C233.236 177.553 233.662 177.552 234.071 177.587C234.475 177.604 234.776 177.905 235.165 178.041C235.557 178.178 235.958 178.292 236.366 178.382C236.786 178.488 237.221 178.535 237.679 178.58L237.714 178.737Z"/>
</mask>
<path d="M237.714 178.737L239.667 178.302L240.006 179.83L238.605 180.527L237.714 178.737ZM236.369 179.181L236.817 181.13L236.788 181.136L236.759 181.142L236.369 179.181ZM234.908 179.297L234.971 177.298L234.981 177.299L234.908 179.297ZM233.433 179.075L234.497 177.381L234.518 177.394L234.538 177.407L233.433 179.075ZM232.515 177.841L230.556 178.248L230.382 177.407L230.871 176.701L232.515 177.841ZM232.608 177.707L230.965 176.567L231.397 175.945L232.132 175.764L232.608 177.707ZM234.071 177.587L233.986 179.585L233.944 179.583L233.902 179.58L234.071 177.587ZM235.165 178.041L235.824 176.152L235.826 176.153L235.165 178.041ZM236.366 178.382L236.796 176.428L236.828 176.435L236.859 176.443L236.366 178.382ZM237.679 178.58L237.876 176.59L239.317 176.732L239.632 178.146L237.679 178.58ZM238.605 180.527C237.973 180.842 237.332 181.011 236.817 181.13L235.921 177.231C236.351 177.133 236.622 177.046 236.823 176.946L238.605 180.527ZM236.759 181.142C236.126 181.268 235.48 181.319 234.835 181.296L234.981 177.299C235.317 177.311 235.652 177.284 235.979 177.219L236.759 181.142ZM234.845 181.296C234.769 181.294 234.697 181.295 234.539 181.296C234.404 181.296 234.211 181.296 234.003 181.281C233.594 181.251 232.953 181.155 232.329 180.742L234.538 177.407C234.34 177.276 234.192 177.284 234.292 177.291C234.339 177.295 234.404 177.296 234.525 177.296C234.622 177.295 234.803 177.293 234.971 177.298L234.845 181.296ZM232.37 180.768C231.674 180.331 230.829 179.56 230.556 178.248L234.473 177.435C234.471 177.427 234.466 177.407 234.454 177.383C234.442 177.358 234.43 177.34 234.42 177.328C234.412 177.318 234.41 177.318 234.422 177.327C234.434 177.338 234.457 177.356 234.497 177.381L232.37 180.768ZM230.871 176.701L230.965 176.567L234.251 178.847L234.158 178.982L230.871 176.701ZM232.132 175.764C233.007 175.55 233.654 175.544 234.239 175.594L233.902 179.58C233.761 179.568 233.656 179.565 233.549 179.572C233.441 179.579 233.294 179.598 233.085 179.649L232.132 175.764ZM234.155 175.589C234.833 175.617 235.345 175.886 235.575 176.01C235.636 176.043 235.695 176.076 235.733 176.098C235.778 176.123 235.804 176.137 235.828 176.15C235.874 176.174 235.864 176.166 235.824 176.152L234.506 179.929C234.272 179.847 234.079 179.75 233.946 179.68C233.88 179.645 233.819 179.61 233.776 179.586C233.727 179.558 233.699 179.543 233.672 179.529C233.553 179.464 233.712 179.573 233.986 179.585L234.155 175.589ZM235.826 176.153C236.142 176.264 236.466 176.356 236.796 176.428L235.936 180.335C235.451 180.228 234.972 180.092 234.504 179.928L235.826 176.153ZM236.859 176.443C237.113 176.508 237.406 176.544 237.876 176.59L237.483 180.571C237.036 180.526 236.459 180.469 235.874 180.32L236.859 176.443ZM239.632 178.146L239.667 178.302L235.762 179.171L235.727 179.015L239.632 178.146Z" fill="white" fill-opacity="0.8" mask="url(#path-43-inside-8_111_139)"/>
<path d="M242.002 184.204C242.017 184.209 242.032 184.213 242.047 184.217M242.002 184.204L241.997 184.388C242.012 184.385 242.027 184.381 242.042 184.378M242.002 184.204L242.005 184.216L242.047 184.217M242.002 184.204L242.042 184.378M242.047 184.217L242.042 184.378M242.047 184.217L242.024 184.298L242.042 184.378M238.516 182.281C238.761 182.369 238.941 182.543 239.124 182.721C239.247 182.841 239.372 182.962 239.521 183.061C239.74 183.207 239.967 183.343 240.201 183.47C239.918 183.437 239.636 183.382 239.358 183.305C239.358 183.305 239.358 183.305 239.358 183.305C239.302 183.289 239.247 183.273 239.191 183.255L239.188 183.254L239.188 183.254C239.082 183.221 238.967 183.189 238.867 183.161C238.832 183.151 238.8 183.142 238.77 183.134C238.642 183.097 238.538 183.065 238.446 183.031C238.371 183.003 238.315 182.977 238.275 182.955C238.262 182.948 238.25 182.941 238.24 182.934C238.204 182.911 238.186 182.893 238.176 182.882L238.168 182.873L238.16 182.864C237.914 182.591 237.825 182.363 237.853 182.106L237.085 182.025L238.516 182.281Z" stroke="white" stroke-opacity="0.8" stroke-width="2"/>
<mask id="path-46-inside-9_111_139" fill="white">
<path d="M242.047 160.404C241.567 160.568 241.113 160.734 240.698 160.952C240.289 161.153 239.899 161.378 239.531 161.625C239.165 161.87 238.951 162.23 238.536 162.393C238.124 162.572 237.688 162.733 237.007 162.836L236.866 162.755C236.778 162.194 237.023 161.74 237.362 161.367C237.699 160.978 238.307 160.847 238.814 160.671C239.328 160.491 239.864 160.365 240.407 160.296C240.953 160.24 241.493 160.211 242.024 160.266L242.047 160.404Z"/>
</mask>
<path d="M242.047 160.404L244.02 160.073L244.301 161.748L242.693 162.297L242.047 160.404ZM240.698 160.952L241.627 162.723L241.603 162.735L241.58 162.747L240.698 160.952ZM239.531 161.625L240.646 163.285L240.644 163.287L239.531 161.625ZM238.536 162.393L237.739 160.559L237.772 160.545L237.805 160.532L238.536 162.393ZM237.007 162.836L237.307 164.813L236.616 164.918L236.01 164.57L237.007 162.836ZM236.866 162.755L235.869 164.489L235.038 164.011L234.89 163.065L236.866 162.755ZM237.362 161.367L238.875 162.676L238.859 162.695L238.842 162.713L237.362 161.367ZM238.814 160.671L239.475 162.558L239.47 162.56L238.814 160.671ZM240.407 160.296L240.158 158.312L240.179 158.309L240.201 158.307L240.407 160.296ZM242.024 160.266L242.233 158.277L243.745 158.436L243.996 159.935L242.024 160.266ZM242.693 162.297C242.224 162.457 241.895 162.582 241.627 162.723L239.769 159.181C240.331 158.886 240.91 158.679 241.401 158.511L242.693 162.297ZM241.58 162.747C241.249 162.91 240.937 163.09 240.646 163.285L238.416 159.964C238.861 159.666 239.329 159.396 239.816 159.157L241.58 162.747ZM240.644 163.287C240.664 163.273 240.662 163.271 240.624 163.306C240.545 163.378 240.561 163.366 240.417 163.501C240.222 163.683 239.839 164.03 239.268 164.254L237.805 160.532C237.648 160.593 237.579 160.678 237.687 160.578C237.715 160.552 237.74 160.528 237.785 160.485C237.824 160.447 237.877 160.397 237.935 160.344C238.053 160.238 238.215 160.099 238.418 159.963L240.644 163.287ZM239.333 164.227C238.809 164.455 238.203 164.677 237.307 164.813L236.706 160.859C237.173 160.788 237.44 160.689 237.739 160.559L239.333 164.227ZM236.01 164.57L235.869 164.489L237.862 161.021L238.004 161.102L236.01 164.57ZM234.89 163.065C234.67 161.662 235.336 160.623 235.883 160.022L238.842 162.713C238.776 162.786 238.786 162.794 238.809 162.738C238.822 162.707 238.836 162.66 238.843 162.602C238.85 162.543 238.848 162.489 238.842 162.445L234.89 163.065ZM235.85 160.058C236.326 159.508 236.909 159.232 237.279 159.083C237.57 158.966 238.1 158.802 238.158 158.781L239.47 162.56C239.316 162.614 239.137 162.67 239.035 162.702C238.911 162.742 238.831 162.77 238.77 162.795C238.709 162.819 238.699 162.828 238.716 162.818C238.735 162.805 238.8 162.762 238.875 162.676L235.85 160.058ZM238.153 158.783C238.801 158.556 239.475 158.398 240.158 158.312L240.657 162.281C240.254 162.331 239.856 162.425 239.475 162.558L238.153 158.783ZM240.201 158.307C240.799 158.245 241.499 158.2 242.233 158.277L241.815 162.255C241.487 162.221 241.106 162.235 240.614 162.286L240.201 158.307ZM243.996 159.935L244.02 160.073L240.075 160.735L240.052 160.598L243.996 159.935Z" fill="white" fill-opacity="0.8" mask="url(#path-46-inside-9_111_139)"/>
<path d="M241.726 171.313C241.851 171.355 241.985 171.373 242.134 171.37C241.962 171.338 241.836 171.318 241.726 171.313Z" stroke="white" stroke-opacity="0.8" stroke-width="2"/>
<path d="M153.923 363.02C153.422 375.73 153.621 388.445 154.521 401.15" stroke="white" stroke-opacity="0.8" stroke-width="2"/>
<path d="M156.254 324.023C154.883 337.005 154.016 350.008 153.654 363.02" stroke="white" stroke-opacity="0.8" stroke-width="2"/>
<path d="M194.384 213.965C181.453 223.993 172.695 238.041 167.27 252.825C166.414 255.16 165.631 257.518 164.92 259.895" stroke="white" stroke-opacity="0.8" stroke-width="2"/>
<path d="M144.025 370.819C143.296 376.476 143.084 382.17 143.392 387.853C143.762 394.666 144.876 401.437 146.722 408.083" stroke="white" stroke-opacity="0.8" stroke-width="2"/>
<path d="M148.455 292.826C148.151 294.268 147.862 295.713 147.588 297.159" stroke="white" stroke-opacity="0.8" stroke-width="2"/>
<path d="M151.055 278.094C150.751 279.824 150.463 281.557 150.188 283.293" stroke="white" stroke-opacity="0.8" stroke-width="2"/>
<path d="M153.654 266.828C153.034 269.128 152.456 271.439 151.921 273.76" stroke="white" stroke-opacity="0.8" stroke-width="2"/>
<path d="M181.385 198.367C171.2 215.992 163.065 234.586 157.121 253.829" stroke="white" stroke-opacity="0.8" stroke-width="2"/>
<path d="M144.081 370.819C146.265 358.75 147.112 342.841 142.579 325.144C135.73 298.41 118.165 275.253 99.6127 262.608C94.433 259.078 88.9573 255.991 83.3392 253.115C69.5343 246.049 60.1185 241.875 54.9733 239.518C44.859 234.885 30.9757 226.427 15.8655 209.632" stroke="white" stroke-opacity="0.8" stroke-width="2"/>
<path d="M145.855 347.6C135.069 350.495 129.122 348.855 125.647 346.661C120.686 343.528 114.912 335.469 111.951 331.573C110.516 329.686 108.994 327.796 106.956 326.478C104.432 324.847 101.948 324.367 96.0369 323.631C91.5691 323.074 87.0864 322.627 82.5935 322.29" stroke="white" stroke-opacity="0.8" stroke-width="2"/>
<path d="M143.478 328.356C140.732 321.246 143.324 312.581 149.591 307.916C153.533 304.982 158.645 303.567 162.14 300.157C165.375 297.002 166.81 292.428 166.64 288.02C166.47 283.613 164.82 279.355 162.582 275.494" stroke="white" stroke-opacity="0.8" stroke-width="2"/>
<path d="M121.59 282.245C120.264 278.667 115.38 277.145 111.239 277.613C107.099 278.08 103.344 279.972 99.3702 281.124C91.2664 283.476 82.0886 282.609 74.6971 278.794C71.9858 277.394 69.5033 275.618 66.6452 274.483C59.7587 271.748 51.827 273.087 44.4633 274.471" stroke="white" stroke-opacity="0.8" stroke-width="2"/>
<path d="M99.9254 263.361C97.0197 260.45 94.1593 257.279 92.9792 253.394C91.3538 248.043 93.1274 242 90.8344 236.882C88.5284 231.738 82.7974 228.979 77.3939 226.964" stroke="white" stroke-opacity="0.8" stroke-width="2"/>
<path d="M63.5284 243.786C59.5683 242.002 54.7757 241.626 50.5047 242.766C48.0935 243.41 45.8745 244.505 43.4756 245.181C35.2615 247.496 26.3947 244.652 18.4653 241.696" stroke="white" stroke-opacity="0.8" stroke-width="2"/>
<path d="M47.9296 236.497C45.1079 235.042 44.4212 231.335 44.8125 228.226C45.2049 225.117 46.3329 222.022 45.8356 218.928C45.3165 215.7 43.1166 213.016 40.9968 210.499" stroke="white" stroke-opacity="0.8" stroke-width="2"/>
<path d="M126.791 289.359C122.265 286.158 120.893 279.708 123.769 275.156C125.796 271.949 129.632 269.563 130.187 265.883C131.054 260.131 123.577 256.325 121.738 250.772C120.621 247.399 121.717 243.699 120.889 240.256C119.82 235.808 115.243 232.302 110.325 232.164" stroke="white" stroke-opacity="0.8" stroke-width="2"/>
<path d="M153.51 370.611C154.185 360.589 152.534 353.146 150.9 348.2C148.86 342.025 145.825 336.643 148.092 330.589C148.526 329.43 149.995 325.506 153.315 324.566C155.838 323.852 156.98 325.229 160.029 324.727C162.402 324.336 163.784 321.874 166.061 321.14C167.82 320.572 169.753 321.141 171.607 320.999C173.461 320.857 175.527 319.268 174.776 317.676C174.413 316.906 173.524 316.487 172.678 316.196C168.991 314.922 164.824 314.901 161.122 316.138C159.485 316.684 157.538 317.432 156.156 316.448C154.57 315.318 155.349 312.731 157.073 311.795C158.798 310.86 160.937 311.059 162.92 311.247C164.904 311.435 167.077 311.538 168.708 310.467C170.858 309.056 171.705 305.842 174.313 305.548C175.314 305.435 176.294 305.828 177.294 305.947C179.791 306.246 182.235 304.769 183.623 302.806C185.011 300.841 185.536 298.463 185.923 296.136C184.924 295.413 183.464 295.301 182.353 295.863C181.424 296.333 180.788 297.191 179.906 297.734C176.659 299.73 171.606 296.815 168.663 299.187C167.529 297.794 168.837 295.747 170.454 294.863C172.071 293.979 174.052 293.601 175.33 292.32C176.219 291.429 176.641 290.215 177.431 289.245C178.933 287.401 181.503 286.696 183.596 285.455C185.69 284.215 187.451 281.634 186.127 279.675C181.8 280.019 177.57 281.065 173.627 282.765C172.897 283.08 172.149 283.424 171.346 283.442C169.634 283.48 168.177 281.707 168.656 280.169C169.111 278.709 170.772 277.959 172.033 276.999C174.759 274.925 175.826 271.542 176.75 268.372C176.995 267.531 177.242 266.657 177.079 265.8C176.65 263.554 173.798 262.592 171.379 262.3C168.959 262.009 166.159 261.783 164.774 259.905C163.97 258.816 163.845 257.378 163.013 256.307C162.109 255.141 160.79 254.738 159.469 254.227C157.267 253.375 156.546 253.671 154.806 252.979C153.798 252.578 152.425 251.836 151.021 250.337C148.779 251.709 148.273 252.748 148.47 253.371C148.948 254.892 150.472 255.873 151.849 256.795C153.225 257.719 154.665 258.884 154.822 260.462C155.002 262.278 153.4 263.88 153.344 265.703C153.247 268.853 157.493 270.571 158.571 273.557C158.717 273.963 159.003 276.043 158.511 276.549C157.884 277.355 156.487 276.692 155.913 275.852C155.339 275.013 154.845 273.909 153.793 273.757C153.366 273.694 152.935 273.815 152.505 273.851C151.174 273.961 149.819 273.143 149.377 271.964C147.838 271.957 146.96 273.831 147.47 275.188C147.981 276.547 149.332 277.443 150.607 278.25L154.6 280.776C156.215 281.798 157.899 282.893 158.758 284.529C159.616 286.167 157.9 289.339 156.792 289.211C155.684 289.083 154.893 288.15 154.372 287.227C153.85 286.304 153.435 285.274 152.564 284.619C151.875 284.101 150.964 283.875 150.325 283.304C149.44 282.514 149.17 281.153 148.074 280.645C147.162 280.221 145.954 280.652 145.452 281.48C144.951 282.309 145.118 283.407 145.733 284.166C146.97 285.694 147.938 285.736 148.441 286.999C149.06 288.549 147.273 289.208 147.625 291.162C147.938 292.898 149.761 294.665 151.272 295.583C151.89 295.958 152.503 296.22 152.835 296.91C153.193 297.652 153.187 298.815 152.417 299.423C151.435 300.198 149.896 299.528 149.675 299.432C148.991 299.134 148.641 298.735 147.279 296.878C145.335 294.227 145.044 293.59 144.195 293.486C143.492 293.4 142.695 293.618 142.121 293.23C141.72 292.959 141.568 292.476 141.435 292.031C141.062 290.779 140.546 289.424 139.336 288.785C138.127 288.147 136.148 288.906 136.333 290.194C136.465 291.113 137.509 291.615 138.188 292.29C140.556 294.645 138.4 299.067 140.736 301.449C141.634 302.365 143.026 302.753 143.911 303.68C144.796 304.606 144.576 306.565 143.248 306.562C142.802 306.561 142.398 306.321 142.05 306.061C138.68 303.536 138.432 298.879 136.336 295.35C134.776 292.724 132.197 290.755 130.453 288.233C129.073 286.237 128.785 284.353 128.689 282.047C128.603 279.995 128.808 277.468 130.799 276.603C132.49 275.867 134.671 276.794 136.274 275.902C137.628 275.15 137.992 273.406 139.252 272.523C140.455 271.681 142.114 271.838 143.587 271.555C145.059 271.272 146.629 269.943 145.985 268.674C145.313 267.956 144.089 268.417 143.1 268.651C141.668 268.99 140.164 268.71 138.687 268.67C137.21 268.631 135.557 268.925 134.697 270.048C134.462 270.354 134.275 270.728 133.909 270.886C133.19 271.196 132.426 270.396 132.384 269.656C132.232 267.009 136.572 266.196 137.594 263.724C137.863 263.072 137.875 262.347 138.143 261.695C139.207 259.102 142.247 258.24 143.316 255.386C143.897 253.837 146.037 247.505 145.769 246.302C145.529 245.218 143.656 245.456 142.979 246.364C142.302 247.272 142.183 248.493 141.392 249.317C139.703 251.076 136.12 249.999 134.474 251.794C133.689 252.649 133.638 253.872 133.404 254.978C133.17 256.084 132.505 257.315 131.309 257.458C129.945 256.71 129.279 255.009 129.802 253.613C130.458 251.865 132.69 250.642 132.519 248.796C132.433 247.877 131.74 247.108 131.479 246.219C130.649 243.381 134.344 240.793 133.867 237.884C133.637 236.482 132.489 235.399 131.616 234.239C130.742 233.08 130.128 231.456 130.998 230.295C130.916 229.965 127.909 232.657 127.832 234.376C127.754 236.094 128.22 237.838 127.844 239.521C126.895 239.288 125.89 239.866 125.375 240.648C124.861 241.429 124.727 242.371 124.604 243.281C123.311 242.328 123.148 240.535 123.48 239.026C123.81 237.518 124.522 236.072 124.581 234.533C124.64 232.994 123.753 231.239 122.13 230.982C121.089 230.816 119.928 231.289 119.008 230.806C118.216 230.391 117.969 229.461 117.538 228.713C116.582 227.059 114.34 226.162 112.402 226.656C111.183 226.967 110.158 227.739 108.972 228.145C106.742 228.907 104.025 228.166 102.582 226.402C101.486 230.742 105.822 236.495 110.537 237.158C110.928 238.443 111.31 239.862 110.702 241.072C110.466 241.543 110.093 241.945 109.854 242.415C109.117 243.865 110.014 245.828 111.643 246.332C112.398 246.566 113.221 246.515 113.995 246.691C114.768 246.868 118.273 249.454 118.281 251.13C118.283 251.454 118.232 251.794 118.026 252.055C117.418 252.824 116.091 252.357 115.352 251.696C114.613 251.034 113.822 250.162 112.81 250.293C112.018 250.395 111.443 251.101 110.659 251.24C108.812 251.567 106.956 248.735 105.569 249.922C105.227 251.791 107.056 253.728 109.081 253.642C109.716 253.616 110.341 253.423 110.975 253.458C113.749 253.612 114.552 257.599 117.243 258.25C118.471 258.547 119.776 258.046 121.029 258.228C123.009 258.516 124.238 260.341 125.202 261.983C125.619 262.694 125.927 263.78 125.154 264.145C124.131 264.629 123.492 263.052 122.581 262.402C121.139 261.375 119.037 262.898 117.293 262.437C115.776 262.036 115.071 260.288 113.599 259.758C112.826 259.48 111.963 259.584 111.142 259.693L107.668 260.152C107.665 260.152 107.656 260.153 107.654 260.158C107.603 260.258 110.252 261.044 112.452 262.779C113.857 263.887 114.048 264.567 115.268 264.887C116.233 265.139 116.578 264.815 117.57 264.902C119.604 265.081 121.488 266.348 122.316 268.094C123.144 269.842 122.884 271.998 121.659 273.528C121.403 273.848 121.064 274.163 120.637 274.186C120.239 274.208 119.883 273.972 119.565 273.748L108.755 266.114C107.166 264.992 105.577 263.87 104.049 262.679C102.713 261.639 101.307 260.285 101.485 258.669C101.644 257.213 103.054 256.13 103.425 254.708C103.805 253.254 103.035 251.74 103.171 250.249C103.388 247.867 105.858 245.923 105.61 243.544C103.717 243.022 102.34 245.236 101.946 247.046C101.551 248.855 100.895 251.147 98.935 251.363C98.0482 252.047 99.1341 254.347 99.0106 254.541C98.8865 254.736 98.5906 254.745 98.3523 254.702C97.2244 254.493 96.3018 253.568 96.112 252.507C95.5189 249.188 101.179 246.894 100.319 243.627C100.152 242.992 99.7439 242.439 99.482 241.833C97.8244 238.001 102.188 233.082 99.5062 229.796C97.109 230.464 95.9499 233.558 97.3778 235.479C97.1378 236.409 95.527 236.319 94.9569 235.525C93.0507 232.876 95.2293 229.125 92.0664 226.603C91.4237 226.091 90.6235 225.721 90.1608 225.06C89.6577 224.341 89.6548 223.428 89.5677 222.572C89.4811 221.718 89.2261 220.774 88.4449 220.323C87.6643 219.871 86.3344 220.421 86.5208 221.262L86.8877 223.053C86.106 224.791 86.7914 226.999 88.4466 228.075C88.3866 229.215 86.6414 229.662 85.5983 229.069C84.5545 228.476 84.0647 227.329 83.5766 226.282C83.0885 225.236 82.425 224.12 81.2659 223.761C80.2828 223.457 79.2212 223.786 78.1902 223.876C76.2021 224.048 74.267 223.314 72.2967 223.014C70.3264 222.714 67.9621 223.024 66.9305 224.623C67.0909 226.235 67.8484 227.934 69.5221 228.348C71.1964 228.762 73.0398 228.895 74.395 229.903C75.8184 230.961 76.3613 232.735 77.4656 234.087C78.5693 235.438 80.9948 236.241 82.091 234.884C83.2656 234.788 84.6965 235.999 84.9671 237.072C85.3421 237.435 85.0098 238.162 84.5061 238.344C84.0036 238.525 83.4428 238.404 82.9074 238.342C82.3725 238.279 81.7535 238.308 81.4021 238.691C81.0144 239.112 81.1073 239.805 80.6907 240.202C80.2707 240.603 79.5639 240.503 78.9858 240.351C78.4077 240.2 77.7367 240.037 77.2481 240.364C76.6896 240.738 76.7415 241.596 77.2088 242.068C77.6767 242.539 78.4077 242.692 79.0943 242.71C79.7814 242.729 80.4732 242.637 81.154 242.724C81.8348 242.812 82.5381 243.129 82.8202 243.715C83.0262 244.143 82.9783 244.651 83.1941 245.075C83.4855 245.649 84.1905 245.936 84.8626 246.03C85.5342 246.123 86.226 246.073 86.8895 246.209C87.992 246.436 88.9509 247.203 89.3605 248.188C89.7696 249.172 88.7686 252.055 88.4559 252.371C87.7635 252.355 86.7521 252.298 85.555 252.096C82.2346 251.537 80.7836 250.423 75.5582 247.553C70.7147 244.892 66.9968 243.107 64.4179 241.376C63.7221 240.909 61.9785 239.717 59.4186 238.089C58.2751 237.361 57.1237 236.645 55.9644 235.94C55.6753 235.792 54.7447 235.269 54.3374 234.205C53.8689 232.98 54.2203 231.561 55.0799 230.926C55.9505 230.284 57.2262 230.282 58.0737 229.614C59.5351 228.461 58.8688 226.236 59.5034 224.55C59.9875 223.264 61.2066 222.371 62.1297 221.316C63.0528 220.261 63.6874 218.69 62.8503 217.574C61.5005 218.148 60.4226 219.165 59.8207 220.433C59.418 221.291 59.0799 222.393 58.1008 222.595C57.7149 222.675 57.3162 222.582 56.9216 222.559C55.4226 222.47 53.9416 223.531 53.6433 224.909C53.4299 225.897 53.7403 227.029 53.1223 227.856C52.3111 228.944 50.2959 228.617 49.5568 227.485C48.8183 226.353 49.1206 224.849 49.851 223.712C50.5815 222.576 51.6753 221.692 52.6262 220.709C53.5764 219.725 54.4251 218.542 54.4718 217.217C54.5053 216.281 54.1337 215.342 54.3155 214.422C54.4966 213.505 55.1913 212.765 55.6955 211.961C57.0404 209.815 56.9867 206.967 55.5617 204.867C53.2233 206.348 54.6766 210.345 52.4629 211.985C51.8404 212.446 51.0321 212.62 50.3414 212.987C49.6508 213.354 49.0393 214.079 49.2758 214.788C49.3635 215.051 49.562 215.291 49.547 215.566C49.5135 216.188 48.4952 216.271 47.9609 215.9C46.5255 214.902 46.9842 212.821 47.6055 211.253C48.2281 209.685 48.7444 207.633 47.3569 206.578C45.7697 205.37 43.5104 206.715 41.5037 207.089C39.5259 207.458 37.3572 206.718 36.0989 205.244C34.2653 204.656 32.381 204.179 30.4921 204.586C30.533 206.374 33.4062 207.254 33.3797 209.042C33.3728 209.488 33.1749 209.909 33.0416 210.337C32.3083 212.698 33.862 215.472 36.355 216.252C37.5591 216.629 38.8896 216.584 40.0631 217.037C41.2366 217.49 42.2301 218.793 41.6168 219.833C41.086 220.38 40.0983 220.047 39.5075 219.556C38.9167 219.066 38.357 218.412 37.5689 218.367C36.9903 218.334 36.437 218.652 35.8589 218.614C35.2415 218.573 34.7003 218.131 34.0818 218.152C33.1593 218.185 32.6395 219.32 33.011 220.11C33.3826 220.901 34.3178 221.332 35.2265 221.488C36.1346 221.643 37.0728 221.59 37.9815 221.742C39.3079 221.965 40.6106 222.718 41.082 223.899C41.5539 225.08 37.6745 226.026 36.4947 225.317C33.6382 223.599 30.4309 221.278 30.6196 218.108C30.6669 217.315 30.9363 216.519 30.7748 215.74C30.5411 214.613 29.4645 213.785 29.1345 212.68C28.5789 210.82 28.3625 207.116 27.6142 206.845C27.5035 206.885 25.1293 207.761 24.6914 210.098C24.3072 212.146 25.7311 213.604 25.8903 213.762C22.859 213.318 21.8851 212.46 21.6117 211.693C21.0468 210.109 23.4273 208.79 22.9444 206.627C22.6392 205.258 21.2909 204.004 19.8883 203.768C17.9953 203.449 17.3261 205.207 15.522 204.993C13.2188 204.721 13.2113 201.599 10.6092 201.036C9.11955 200.713 8.59915 201.616 5.91633 201.726C4.59276 201.777 3.26941 201.622 2 201.268C2 201.268 2.38482 206.518 5.34688 210.037C7.67833 212.808 9.44091 211.932 10.5008 214.182C11.8197 216.981 9.55341 220.789 10.9375 222.145C12.0481 223.234 14.1471 221.299 16.3955 222.35C19.1198 223.623 18.0721 227.414 20.7618 228.613C22.619 229.44 23.6027 227.946 26.2192 228.613C28.5956 229.218 28.5806 230.906 31.1036 232.204C33.7397 233.56 35.9858 231.652 38.3495 233.035C41.622 234.951 43.8502 238.82 47.8583 239.538M47.8583 239.538C43.8502 238.82 46.3253 239.675 47.8583 239.538ZM47.8583 239.538C44.606 239.932 41.8891 238.345 39.8513 236.121C38.833 235.486 37.4743 235.168 36.456 235.804C35.0973 237.074 37.1351 238.345 38.4932 238.98C38.833 239.297 39.5121 239.932 39.5121 240.568C39.4539 240.681 39.3744 240.784 39.2773 240.87C38.4211 241.624 36.0579 241.119 34.7332 239.91C33.0855 238.406 34.0288 236.71 32.5506 235.826C31.489 235.192 30.668 235.926 28.8391 235.418C27.3292 234.999 26.2561 234.163 25.5874 233.526C26.113 236.034 27.4954 239.486 30.4401 240.237C30.0126 241.813 27.5952 241.211 26.5428 240.714C24.1381 239.577 22.4338 237.102 19.6645 236.648C17.7917 236.342 15.9016 237.139 14.0173 237.129C12.1767 237.12 10.366 236.693 8.74049 235.885L8.70357 235.92C8.61587 237.107 8.85588 239.716 10.3485 242.475C10.8769 243.452 11.6218 244.312 12.6101 244.91C13.8188 245.641 15.3356 245.869 16.3349 246.892C18.0675 248.667 16.5039 251.81 18.6277 253.631C20.0787 254.875 22.4615 254.471 24.115 253.861C26.379 253.027 28.092 251.211 30.4915 250.63C31.4815 250.391 33.2932 250.241 33.5487 251.469C33.7824 252.592 32.7156 253.316 31.8393 253.844C30.949 254.381 26.2503 256.692 28.6383 257.861C29.7311 258.395 31.2571 258.215 32.3285 257.743C33.6895 257.144 34.1297 256.216 34.8117 255.05C35.5617 253.766 36.5656 253.506 37.8787 252.847C39.1342 252.219 40.2846 251.426 41.3993 250.601C42.8567 249.522 48.9337 251.087 47.0136 252.553C46.1245 253.232 43.7221 254.054 43.9038 255.419C43.9344 255.647 44.0198 255.811 44.1462 255.924C44.8898 256.587 47.0401 255.491 47.6263 255.193C48.7127 254.639 50.777 253.314 52.4167 250.12C52.6435 249.904 56.3198 246.46 57.701 247.299C57.8989 247.419 58.1072 247.662 58.1903 248.191C58.5295 250.415 55.8127 252.003 57.1714 253.908C58.1903 254.861 59.5484 253.908 60.2275 253.273C61.5856 252.003 62.2653 250.415 62.2653 248.826C66.3402 247.556 70.076 249.462 73.4719 251.05C80.9428 255.179 86.7164 260.261 94.1873 265.025L99.2812 267.884C100.639 268.837 103.017 271.061 100.979 272.331C99.621 272.967 98.2623 272.014 97.244 271.061C94.8664 268.202 92.8292 264.39 88.7536 263.755C88.0745 263.755 87.7353 264.39 87.7353 264.708C88.0745 265.661 89.4327 266.296 90.1123 266.931C91.1306 268.837 92.4893 270.743 92.8292 272.967C92.8292 273.919 91.8103 274.872 90.7914 274.872C89.4327 274.555 88.0745 274.555 87.7353 272.967C87.0556 270.108 85.0184 268.519 82.9806 266.614C81.6219 265.025 82.6414 262.802 81.6219 260.897C80.6036 259.308 78.5658 258.673 76.8679 257.72C74.8301 256.45 75.849 254.226 74.4908 252.638C73.1321 251.05 71.774 251.685 70.4158 251.685C70.076 252.003 69.3964 252.32 69.0571 252.955C68.7173 254.544 69.0571 256.45 70.4158 257.085C72.453 258.038 75.5097 259.626 74.151 261.85C73.4719 263.12 73.4719 264.073 73.4719 265.025C73.8112 265.661 73.4719 268.837 72.453 268.837C71.7526 268.807 70.5381 268.648 69.3964 267.884C67.5559 266.652 66.6778 264.361 67.0435 261.963C67.0055 261.666 66.6668 259.352 64.4242 258.083C62.7828 257.154 61.1292 257.355 60.6585 257.428C59.612 257.149 58.5253 257.025 57.4379 257.062C55.6459 257.127 54.9011 257.605 53.5083 257.674C52.4554 257.727 50.9334 257.551 49.0208 256.45C47.6627 260.897 54.1147 260.579 56.8315 262.484C57.5106 263.12 57.8504 263.755 57.5106 264.708C56.8315 266.296 55.4734 266.296 54.4545 265.661C51.7377 263.12 48.3417 260.897 44.2667 261.532C42.5682 261.85 42.908 264.073 42.229 265.025C38.154 269.472 31.7014 265.978 26.6075 267.249C25.5886 267.249 24.5697 267.566 24.2304 268.837C23.8906 270.108 24.9095 271.378 25.9284 272.014C27.9656 272.967 30.3432 272.649 32.3804 272.649C35.7769 272.967 35.7769 276.778 37.1351 279.001C37.7755 280.05 40.5368 280.746 41.5943 280.639C42.9386 280.502 44.385 280.208 45.5781 280.802C46.6276 281.324 47.2155 282.418 48.1987 283.044C49.7322 284.018 51.8548 283.62 53.4622 282.755C55.069 281.891 56.3965 280.622 58.0103 279.769C59.1803 279.15 60.6048 278.761 61.8677 279.193C63.1301 279.625 63.9921 281.135 63.2928 282.209C62.6495 283.198 61.1592 283.313 59.9436 283.099C58.728 282.886 57.4818 282.458 56.2892 282.765C53.836 283.398 52.7121 286.844 50.173 286.683C48.7144 286.591 47.1878 285.26 46.008 286.067C45.0675 286.711 45.4772 288.216 46.4418 288.828C47.4059 289.441 48.6452 289.463 49.8014 289.603C51.8392 289.851 53.7985 290.523 55.838 290.759C57.8776 290.997 60.1473 290.712 61.5925 289.346C62.6691 288.327 63.3943 286.688 64.9198 286.562C65.892 286.481 66.7516 287.088 67.6188 287.507C69.6214 288.473 70.9934 289.391 72.989 288.412C75.0453 288.52 76.5782 287.269 78.537 287.075C80.7028 286.861 81.0986 288.905 79.9568 290.252C78.7683 291.654 76.6094 291.783 75.3516 293.112C74.3524 294.168 74.2289 295.706 73.2729 296.777C71.8922 298.323 70.6385 296.682 69.2758 296.125C68.6723 295.879 67.7197 295.788 67.3678 296.441C66.9437 297.227 67.9292 298.089 68.4842 298.566C69.5885 299.514 70.9593 300.159 72.408 300.5C75.3614 301.195 78.6922 300.677 81.1875 299.024C82.5785 298.103 83.3966 296.927 84.213 295.562C85.2896 293.76 86.7833 293.4 88.8863 293.48C90.6546 293.548 92.408 293.694 93.8694 292.588C95.0348 291.705 95.7722 290.44 96.7051 289.364C97.5221 288.423 98.631 287.458 100.038 287.61C101.383 287.756 102.25 289.006 102.357 290.191C102.505 291.813 101.355 292.481 99.8985 292.983C99.1208 293.251 98.3102 293.512 97.9109 294.25C97.5025 295.005 97.7575 295.9 97.4667 296.68C96.7051 298.723 94.2548 297.027 92.8263 297.923C91.077 299.019 92.903 300.263 94.2092 300.645C98.0667 301.775 101.309 298.714 103.923 296.593C105.415 295.384 106.944 294.464 108.833 293.905C110.224 293.494 112.005 293.173 112.986 292.066C114.283 290.602 112.612 288.805 113.578 287.362C114.588 285.855 116.839 287.133 117.848 287.96C123.94 292.952 128.125 300.089 130.759 307.155C131.097 308.061 131.413 308.974 131.708 309.893C131.997 310.791 132.105 311.837 132.818 312.466C134.248 313.728 135.713 315.077 135.853 317.042C136.014 319.284 134.382 321.13 135.649 323.363C136.762 325.324 138.055 327.114 138.709 329.281C139.338 331.361 139.357 333.615 139.747 335.743C140.261 338.548 140.989 342.934 136.787 343.559C131.74 344.309 133.502 336.613 134.297 334.265C134.929 332.398 136.085 330.176 135.193 328.218C134.579 326.869 132.745 325.535 131.174 326.419C132.025 327.466 130.184 330.458 129.505 332.363C129.166 333.952 130.184 334.905 130.864 336.175C131.203 337.446 127.467 340.305 127.128 339.987C124.072 339.034 123.392 334.905 123.732 332.046C124.072 330.14 125.43 328.235 125.77 326.328C126.449 324.105 124.072 323.47 122.713 322.199C122.374 321.882 122.034 321.246 122.034 320.929V315.847C121.695 313.941 119.657 312.353 117.62 312.988C116.601 313.624 116.94 315.212 116.94 316.164C116.94 317.435 115.922 318.388 115.582 319.658C115.582 321.882 117.62 323.47 117.959 325.376C117.959 326.011 117.28 326.964 116.261 326.964C114.903 326.964 112.865 327.282 112.526 326.011C111.847 324.423 112.865 322.835 112.526 321.246C111.847 318.705 109.13 318.705 107.432 317.435C106.753 316.799 106.413 316.164 106.413 315.529C106.413 313.624 105.733 311.718 104.375 310.447C102.677 308.859 99.621 307.588 97.244 308.859C95.5454 309.812 96.2245 311.718 97.244 312.353C98.6021 312.988 99.9603 313.306 101.319 313.941C101.658 314.258 102.338 315.212 101.998 315.847C101.874 315.997 101.321 316.637 100.373 316.754C99.4243 316.871 98.4573 316.417 97.8982 315.598C95.8219 313.648 93.2645 312.206 90.4516 311.4C88.4143 311.083 86.7164 312.035 85.3577 313.306C82.3016 315.212 79.2449 313.624 76.528 312.353C73.1321 311.083 69.0571 310.765 65.2844 312.114C66.0299 312.318 67.2109 312.755 68.2632 313.735C70.7793 316.079 70.316 319.434 70.2456 319.886C70.1181 320.537 69.8856 322.224 70.7551 324.105C71.752 326.261 73.5596 327.293 74.151 327.599C75.7855 327.707 77.398 328.014 78.9478 328.512C80.901 329.142 82.7304 330.068 84.363 331.252C87.557 332.462 89.9063 332.365 91.4704 332.046C93.4782 331.637 94.3823 330.551 97.7528 330.231C99.5916 330.057 101.128 330.279 102.116 330.485C102.314 330.518 102.875 330.64 103.307 331.106C104.033 331.889 103.721 332.921 103.696 332.999C103.356 333.952 103.017 334.269 101.998 334.587C99.621 334.905 96.9041 333.317 95.5454 334.905C94.5271 336.175 93.8475 337.446 92.1495 337.128C90.4516 336.811 88.7536 335.858 87.0556 335.222C85.3577 334.587 83.6597 336.175 84.3388 337.764C85.0184 339.034 86.7164 339.669 88.0745 339.987C94.1873 341.575 100.3 343.481 106.073 340.622C107.432 340.305 108.79 340.622 110.149 341.257C111.102 341.637 111.5 342.632 111.142 343.363C110.861 343.937 110.139 344.295 109.371 344.206C107.691 343.473 106.787 343.614 106.267 343.912C105.314 344.458 105.454 345.644 104.448 346.158C103.679 346.55 102.717 346.307 101.998 346.022C99.621 345.386 95.8853 343.798 94.8664 346.657C94.5271 347.928 95.8853 348.563 96.9042 348.881C98.6021 349.198 100.3 348.563 101.998 348.563C104.036 348.881 105.055 350.787 106.073 352.375C109.13 355.551 113.545 353.01 116.601 351.104C117.959 350.469 119.317 350.787 120.336 351.104C121.355 351.421 123.392 352.692 122.374 353.962C119.997 353.646 116.94 353.962 115.582 356.186C114.903 357.774 114.224 360.633 111.507 359.998C109.809 359.68 108.111 358.727 106.753 359.68C105.733 360.633 106.413 361.268 107.092 361.586C109.809 363.492 112.865 363.81 115.922 363.492C118.299 363.174 120.336 361.586 122.034 359.998C124.072 358.41 126.449 359.045 128.826 359.68C131.203 360.315 132.222 358.092 134.26 357.456C137.212 357.873 139.698 359.694 140.712 362.221C141.911 365.209 140.858 368.702 138.062 370.819" stroke="white" stroke-opacity="0.8" stroke-width="2"/>
</svg>
