<svg width="342" height="393" viewBox="0 0 342 393" fill="none" xmlns="http://www.w3.org/2000/svg">
<path d="M86.5219 106.301C86.706 98.4939 92.4587 91.1491 99.9628 89.1418C104.973 87.8015 111.138 89.1817 113.652 93.7423C114.613 95.485 114.952 97.4952 115.276 99.4608L116.455 106.613" stroke="white" stroke-opacity="0.8" stroke-width="2"/>
<path d="M89.5563 108.616C89.853 108.676 89.6583 109.207 89.357 109.177C89.0563 109.147 88.8764 108.834 88.7647 108.553C87.7474 105.98 88.2778 102.991 89.5953 100.558C90.9133 98.1252 92.941 96.1612 95.0255 94.3439C96.2679 93.2599 97.5567 92.2039 99.0339 91.4741C103.433 89.3008 109.024 90.4709 112.762 93.6503C116.499 96.8296 118.516 101.701 119.02 106.585" stroke="white" stroke-opacity="0.8" stroke-width="2"/>
<path d="M78.8608 119.541C73.2788 122.913 67.4584 126.369 60.9648 127.044C55.9673 127.562 50.9526 126.384 45.9282 126.356C38.1931 126.312 30.6954 128.983 22.9855 129.603C15.275 130.223 6.40481 128.043 2.74601 121.255C-1.35541 113.645 2.8764 104.498 4.22543 95.9658C6.37908 82.3408 1.03785 67.2658 7.72582 55.1883C10.3741 50.4053 14.6608 46.7045 17.4698 42.0138C20.2285 37.4091 21.5169 31.9274 24.9876 27.8278C29.4727 22.53 36.7532 20.5042 42.0538 16.0146C44.614 13.8452 46.663 11.1405 49.1289 8.86521C56.3842 2.16919 67.3188 -0.292903 76.7603 2.64305C86.2018 5.57842 93.7882 13.7997 95.9293 23.4168" stroke="white" stroke-opacity="0.8" stroke-width="2"/>
<path d="M106.341 122.263C105.999 119.538 103.364 117.709 100.793 116.772C98.2219 115.835 95.3976 115.38 93.2125 113.728C90.2628 111.498 89.1639 107.65 87.6472 104.27C83.5484 95.1382 75.0715 88.1109 65.3658 85.7998C59.7137 84.4541 53.8205 84.6408 48.0601 83.8861C42.3003 83.1308 36.317 81.1981 32.6431 76.6801C34.5784 86.0792 42.5712 92.8099 50.0673 98.7636L68.6582 113.528C71.8828 116.088 75.2568 118.723 79.2706 119.618C81.3502 120.081 83.5028 120.051 85.624 120.252M85.624 120.252C94.4562 121.086 104.041 125.753 111.591 121.074C118.908 116.539 119.645 105.73 126.103 100.029L126.301 99.7771C135.597 97.5805 139.244 98.8231 140.799 100.51C141.298 101.05 142.397 102.598 144.224 102.799C145.51 102.94 146.683 102.129 147.922 101.756C153.165 100.179 157.526 106.374 162.907 107.379C164.747 107.722 166.64 107.433 168.512 107.47C177.359 107.646 184.3 114.808 190.177 121.452C190.904 122.273 191.67 123.189 191.712 124.287C191.779 126.045 190.015 127.269 188.397 127.943C175.09 133.491 158.22 126.133 146.181 134.083C143.146 136.088 140.729 138.916 137.748 141.001C133.866 143.714 128.984 145.218 126.121 148.999C121.861 154.625 123.365 163.667 117.989 168.228C111.781 173.495 100.275 169.245 95.5059 175.853C94.1175 177.776 93.7029 180.219 92.7746 182.404C90.7965 187.06 86.253 190.516 81.2538 191.166C76.2547 191.815 70.9847 189.637 67.8913 185.64C65.1958 182.158 64.0736 177.473 60.7253 174.62C57.6535 172.001 53.3689 171.485 49.6995 169.813C44.6188 167.498 40.7009 162.754 39.374 157.312C38.9765 155.684 38.8151 153.902 39.5188 152.381C40.0884 151.151 41.1565 150.237 42.2062 149.382C54.9923 138.983 62.9275 135.918 64.8811 134.962C70.2788 132.322 77.6329 127.914 85.624 120.252Z" stroke="white" stroke-opacity="0.8" stroke-width="2"/>
<path d="M154.084 130.814C154.343 133.355 155.316 134.436 155.971 134.933C156.402 135.26 156.618 135.858 160.433 136.594C161.112 136.725 161.818 136.85 162.376 137.254C165.365 139.418 160.55 145.329 163.55 147.477C164.826 148.392 166.698 147.787 168.102 148.492C169.794 149.34 170.055 151.574 170.258 153.446C170.639 156.951 171.569 160.374 173.016 163.593C173.515 164.703 174.173 165.879 175.319 166.309C176.376 166.707 177.578 166.35 178.551 165.78C184.205 162.467 183.734 153.858 188.279 149.154C190.592 146.76 191.334 147.451 193.056 145.2C197.006 140.033 195.909 133.294 195.665 131.794C194.331 123.602 188.269 118.893 186.675 117.731" stroke="white" stroke-opacity="0.8" stroke-width="2"/>
<path d="M34.4524 83.5219C31.939 79.0789 32.0532 73.26 34.7385 68.9202C36.7573 65.6587 40.008 63.3239 42.0948 60.1053C44.7293 56.0432 45.2558 51.0192 46.2592 46.2774C47.2632 41.5356 49.1142 36.5105 53.2649 34.0346C58.2591 31.0558 64.5555 32.809 70.3555 33.1354C78.3469 33.5844 86.4713 30.9962 92.743 26.002C95.5209 23.79 97.9663 21.114 101.062 19.3785C104.873 17.2411 109.384 16.702 113.747 16.8333C124.604 17.1596 135.296 21.5097 143.317 28.8633C151.583 36.4411 157.791 47.4778 168.623 50.3052" stroke="white" stroke-opacity="0.8" stroke-width="2"/>
<path d="M115.599 116.875C116.437 113.633 118.282 110.328 118.651 106.657C119.757 96.7441 118.282 86.8316 120.864 77.2857C122.709 71.7786 127.873 69.2087 132.668 66.6387C136.726 64.0688 138.202 59.2961 140.784 54.8901C145.579 46.8131 155.908 51.2191 163.655 51.5857C168.081 51.5857 171.77 49.0164 175.828 48.6491C177.672 48.6491 179.517 47.9147 181.451 49.3249M181.451 49.3249C171.183 52.8622 180.583 48.8837 181.451 49.3249ZM181.451 49.3249C171.183 52.8622 162.163 61.5159 158.862 71.9164C157.236 77.0426 156.933 84.0043 151.875 87.1686C150.187 88.2236 148.356 88.6711 146.467 88.8851C142.417 89.344 141.544 88.7474 138.022 89.5097C135.821 89.9862 132.711 90.6597 130.969 93.2877C129.58 95.3857 129.711 97.7507 129.861 98.8893" stroke="white" stroke-opacity="0.8" stroke-width="2"/>
<path d="M114.295 86.9427C112.502 84.3881 112.822 80.8516 114.003 77.958C115.185 75.065 117.11 72.542 118.472 69.7304C121.826 62.807 121.418 54.1739 117.427 47.6027" stroke="white" stroke-opacity="0.8" stroke-width="2"/>
<path d="M91.3372 126.283C92.3741 128.66 90.6748 131.303 88.9021 133.199C85.6906 136.631 81.9471 139.527 77.8146 141.774C74.5134 143.568 70.9469 144.96 68.0298 147.326C65.1126 149.692 62.8835 153.379 63.5494 157.071" stroke="white" stroke-opacity="0.8" stroke-width="2"/>
<path d="M117.31 121.073C120.279 121.626 122.967 119.165 124.765 116.625C126.562 114.084 128.174 111.118 130.943 109.864C133.132 108.874 135.63 109.161 137.996 109.467L154.939 111.656" stroke="white" stroke-opacity="0.8" stroke-width="2"/>
<path d="M66.8518 117.681C65.0179 120.931 60.8626 121.65 57.4318 120.855C54.0016 120.059 50.8645 118.129 47.4388 117.307C42.6656 116.161 37.4621 117.33 33.4983 120.438" stroke="white" stroke-opacity="0.8" stroke-width="2"/>
<path d="M124.151 97.2053C126.572 93.2761 124.87 88.3208 125.373 83.8055C125.791 80.0504 127.861 76.4809 130.993 74.1144" stroke="white" stroke-opacity="0.8" stroke-width="2"/>
<path d="M91.6532 117.731C88.7357 116.685 85.9777 115.227 83.46 113.402C82.3136 112.57 81.1827 111.616 80.5875 110.319C79.9058 108.835 80.0189 107.123 79.9312 105.488C79.6284 99.8347 76.599 94.397 71.9832 91.2189" stroke="white" stroke-opacity="0.8" stroke-width="2"/>
<path d="M187.171 128.849C188.202 132.973 186.086 137.23 183.522 140.622C180.958 144.014 177.826 147.108 176.32 151.084" stroke="white" stroke-opacity="0.8" stroke-width="2"/>
<path d="M88.2323 96.3501C87.9348 94.2847 86.3731 92.6448 84.6679 91.5242C82.9627 90.4036 81.0462 89.6472 79.3894 88.4519C76.4794 86.3532 74.6013 83.0861 72.8116 79.9202L68.5623 72.404" stroke="white" stroke-opacity="0.8" stroke-width="2"/>
<mask id="path-16-inside-1_111_140" fill="white">
<path d="M111.323 104.754C112.283 104.047 113.134 103.239 113.822 102.325C114.513 101.431 115.08 100.455 115.509 99.4215C115.935 98.3905 116.045 97.3001 116.356 96.2697C116.654 95.2202 116.878 94.1581 117.197 92.9547L117.377 92.9293C118.05 94.022 118.236 95.3073 118.143 96.5476C118.064 97.8075 117.434 98.9516 116.817 100.016C116.204 101.085 115.422 102.058 114.499 102.9C113.574 103.72 112.544 104.422 111.416 104.902L111.323 104.754Z"/>
</mask>
<path d="M111.323 104.754L109.624 105.808L108.65 104.238L110.137 103.143L111.323 104.754ZM113.822 102.325L112.225 101.123L112.232 101.113L112.239 101.104L113.822 102.325ZM115.509 99.4215L117.358 100.185L117.356 100.19L115.509 99.4215ZM116.356 96.2697L118.279 96.8162L118.275 96.8318L118.27 96.8473L116.356 96.2697ZM117.197 92.9547L115.265 92.4409L115.605 91.1601L116.917 90.9744L117.197 92.9547ZM117.377 92.9293L117.096 90.949L118.392 90.7656L119.079 91.8798L117.377 92.9293ZM118.143 96.5476L116.147 96.4223L116.147 96.4102L116.148 96.3982L118.143 96.5476ZM116.817 100.016L115.083 99.0204L115.087 99.0133L116.817 100.016ZM114.499 102.9L115.847 104.377L115.836 104.387L115.826 104.397L114.499 102.9ZM111.416 104.902L112.199 106.742L110.621 107.414L109.716 105.957L111.416 104.902ZM110.137 103.143C110.969 102.531 111.672 101.856 112.225 101.123L115.42 103.528C114.597 104.622 113.598 105.562 112.509 106.364L110.137 103.143ZM112.239 101.104C112.823 100.347 113.301 99.5228 113.663 98.6534L117.356 100.19C116.858 101.386 116.202 102.514 115.406 103.547L112.239 101.104ZM113.661 98.6576C113.806 98.307 113.91 97.9145 114.025 97.406C114.128 96.9446 114.258 96.2977 114.441 95.6921L118.27 96.8473C118.142 97.272 118.062 97.6856 117.927 98.2848C117.802 98.8368 117.639 99.5051 117.358 100.185L113.661 98.6576ZM114.432 95.7231C114.742 94.6293 114.893 93.8406 115.265 92.4409L119.13 93.4684C118.863 94.4755 118.565 95.8111 118.279 96.8162L114.432 95.7231ZM116.917 90.9744L117.096 90.949L117.657 94.9095L117.478 94.9349L116.917 90.9744ZM119.079 91.8798C120.038 93.4358 120.251 95.1778 120.137 96.6971L116.148 96.3982C116.22 95.4367 116.062 94.6081 115.674 93.9787L119.079 91.8798ZM120.139 96.6729C120.026 98.4674 119.14 99.9969 118.548 101.019L115.087 99.0133C115.728 97.9063 116.101 97.1476 116.147 96.4223L120.139 96.6729ZM118.552 101.012C117.834 102.263 116.921 103.397 115.847 104.377L113.151 101.422C113.923 100.718 114.574 99.9073 115.083 99.0204L118.552 101.012ZM115.826 104.397C114.777 105.326 113.567 106.16 112.199 106.742L110.632 103.062C111.52 102.684 112.371 102.114 113.173 101.403L115.826 104.397ZM109.716 105.957L109.624 105.808L113.023 103.699L113.115 103.848L109.716 105.957Z" fill="white" fill-opacity="0.8" mask="url(#path-16-inside-1_111_140)"/>
<mask id="path-18-inside-2_111_140" fill="white">
<path d="M102.637 97.2053C101.953 96.6607 101.353 96.0127 100.794 95.3219C100.244 94.616 99.7734 93.8528 99.3902 93.046C99.0051 92.2418 98.5311 91.4144 98.5023 90.4932C98.4609 89.5845 98.5833 88.6496 99.0921 87.7979L99.2721 87.8009C99.7556 88.6496 100.019 89.4176 100.275 90.1844C100.544 90.9375 100.524 91.7589 100.74 92.5476C100.957 93.339 101.233 94.1133 101.566 94.864C101.89 95.6326 102.31 96.3625 102.771 97.0865L102.637 97.2053Z"/>
</mask>
<path d="M102.637 97.2053L103.961 98.7038L102.704 99.8154L101.391 98.7699L102.637 97.2053ZM100.794 95.3219L99.2396 96.5803L99.2279 96.5658L99.2164 96.5511L100.794 95.3219ZM99.3902 93.046L101.194 92.182L101.197 92.188L99.3902 93.046ZM98.5023 90.4932L100.5 90.4022L100.501 90.4165L100.501 90.4307L98.5023 90.4932ZM99.0921 87.7979L97.3751 86.7723L97.9683 85.7791L99.1251 85.7982L99.0921 87.7979ZM99.2721 87.8009L99.3051 85.8012L100.445 85.82L101.01 86.8108L99.2721 87.8009ZM100.275 90.1844L98.3915 90.8566L98.3847 90.8374L98.3782 90.8181L100.275 90.1844ZM100.74 92.5476L98.8108 93.0768L98.8102 93.0745L100.74 92.5476ZM101.566 94.864L103.394 94.0525L103.402 94.0698L103.409 94.0871L101.566 94.864ZM102.771 97.0865L104.458 96.0127L105.375 97.4538L104.096 98.5851L102.771 97.0865ZM101.391 98.7699C100.552 98.1016 99.8493 97.3335 99.2396 96.5803L102.349 94.0636C102.857 94.6919 103.354 95.2198 103.882 95.6408L101.391 98.7699ZM99.2164 96.5511C98.577 95.7303 98.0294 94.8427 97.5836 93.9039L101.197 92.188C101.517 92.8629 101.911 93.5016 102.372 94.0928L99.2164 96.5511ZM97.5865 93.9099C97.3081 93.3287 96.5488 92.0119 96.5033 90.5557L100.501 90.4307C100.513 90.817 100.702 91.1549 101.194 92.182L97.5865 93.9099ZM96.5044 90.5842C96.4524 89.4433 96.5965 88.0756 97.3751 86.7723L100.809 88.8235C100.57 89.2236 100.469 89.7256 100.5 90.4022L96.5044 90.5842ZM99.1251 85.7982L99.3051 85.8012L99.2391 89.8006L99.0591 89.7976L99.1251 85.7982ZM101.01 86.8108C101.599 87.8442 101.913 88.7755 102.172 89.5506L98.3782 90.8181C98.1248 90.0596 97.9127 89.455 97.5343 88.7909L101.01 86.8108ZM102.159 89.5121C102.369 90.1013 102.453 90.6778 102.508 91.0761C102.572 91.5315 102.603 91.7802 102.669 92.0208L98.8102 93.0745C98.6605 92.5264 98.5942 91.97 98.5466 91.6291C98.491 91.2313 98.45 91.0205 98.3915 90.8566L102.159 89.5121ZM102.668 92.0185C102.859 92.7133 103.102 93.3932 103.394 94.0525L99.7383 95.6755C99.3645 94.8334 99.0544 93.9648 98.8108 93.0768L102.668 92.0185ZM103.409 94.0871C103.671 94.7087 104.025 95.3321 104.458 96.0127L101.084 98.1603C100.595 97.393 100.109 96.5564 99.7233 95.6409L103.409 94.0871ZM104.096 98.5851L103.961 98.7038L101.312 95.7068L101.446 95.588L104.096 98.5851Z" fill="white" fill-opacity="0.8" mask="url(#path-18-inside-2_111_140)"/>
<path d="M108.192 98.0605C108.195 98.0542 108.198 98.0479 108.202 98.0415L108.199 98.0409L108.192 98.0605ZM108.192 98.0605L108.035 98.002M108.192 98.0605L108.119 98.0219L108.035 98.002M108.035 98.002C108.037 97.9946 108.039 97.9872 108.04 97.9798L108.043 97.9812L108.035 98.002ZM108.46 94.0863C108.446 93.3964 108.385 92.708 108.279 92.0254C108.199 91.5163 108.053 91.0278 107.907 90.5422C107.773 90.0949 107.64 89.6499 107.56 89.1935L108.46 94.0863ZM108.46 94.0863C108.572 93.3882 108.623 92.6814 108.611 91.9737C108.611 91.9735 108.611 91.9734 108.611 91.9732C108.611 91.9606 108.611 91.948 108.61 91.9353L108.61 91.9326C108.61 91.9019 108.609 91.8713 108.609 91.8409C108.591 90.7519 108.577 89.875 108.24 89.1066L108.24 89.1066L108.235 89.0953C108.232 89.089 108.23 89.0827 108.227 89.0765C108.226 89.0733 108.224 89.0701 108.223 89.067C107.962 88.4593 107.638 87.9116 107.229 87.4593M109.608 91.7447C109.608 91.802 109.609 91.8591 109.61 91.916C109.625 92.6657 109.575 93.4147 109.462 94.1549C109.45 93.4077 109.387 92.6619 109.275 91.9225C109.275 91.9222 109.275 91.9219 109.275 91.9216C109.272 91.9049 109.27 91.8883 109.267 91.8717L109.267 91.8702C109.178 91.3052 109.02 90.7742 108.882 90.3129L108.872 90.2792C108.733 89.8125 108.614 89.4181 108.545 89.0207L108.543 89.0134L108.542 89.0061C108.54 88.9962 108.538 88.9863 108.536 88.9765C108.536 88.9737 108.535 88.9709 108.535 88.9681C108.499 88.7804 108.463 88.5963 108.427 88.414C108.335 87.948 108.245 87.4939 108.169 87.021C108.582 87.5307 108.902 88.1073 109.156 88.705C109.576 89.6629 109.592 90.7263 109.608 91.7447Z" stroke="white" stroke-opacity="0.8" stroke-width="2"/>
<mask id="path-21-inside-3_111_140" fill="white">
<path d="M95.0133 101.481C94.0528 101.275 93.1409 100.818 92.3191 100.226C91.4954 99.6101 90.7932 98.8474 90.248 97.9763C89.6991 97.1123 89.1274 96.1538 89.0935 95.0722C89.0456 94.0156 89.2817 92.9095 89.9808 92.074L90.1515 92.1149C90.4058 93.1393 90.587 93.9789 90.8273 94.8096C91.081 95.6188 91.133 96.4957 91.4855 97.3171C91.8406 98.1403 92.3214 98.9037 92.9106 99.5801C93.5004 100.278 94.2381 100.858 95.0741 101.318L95.0133 101.481Z"/>
</mask>
<path d="M95.0133 101.481L96.8885 102.177L96.2862 103.801L94.5928 103.437L95.0133 101.481ZM92.3191 100.226L91.1499 101.849L91.1356 101.838L91.1214 101.828L92.3191 100.226ZM90.248 97.9763L91.9362 96.9039L91.9432 96.9152L90.248 97.9763ZM89.0935 95.0722L91.0914 94.9815L91.0921 94.9955L91.0925 95.0095L89.0935 95.0722ZM89.9808 92.074L88.447 90.7905L89.2418 89.8408L90.4462 90.1289L89.9808 92.074ZM90.1515 92.1149L90.6169 90.1698L91.7997 90.4528L92.0926 91.6331L90.1515 92.1149ZM90.8273 94.8096L88.9189 95.408L88.9122 95.3867L88.906 95.3652L90.8273 94.8096ZM91.4855 97.3171L89.6491 98.1094L89.6475 98.1058L91.4855 97.3171ZM92.9106 99.5801L94.4187 98.2664L94.4284 98.2776L94.438 98.289L92.9106 99.5801ZM95.0741 101.318L96.0369 99.5645L97.5492 100.395L96.9493 102.013L95.0741 101.318ZM94.5928 103.437C93.2994 103.159 92.1366 102.56 91.1499 101.849L93.4882 98.6033C94.1453 99.0767 94.8063 99.3912 95.4337 99.5261L94.5928 103.437ZM91.1214 101.828C90.1001 101.064 89.2291 100.118 88.5527 99.0375L91.9432 96.9152C92.3573 97.5767 92.8908 98.1562 93.5167 98.6242L91.1214 101.828ZM88.5598 99.0488C88.0385 98.2282 87.1478 96.8355 87.0945 95.1348L91.0925 95.0095C91.107 95.472 91.3597 95.9965 91.9361 96.9039L88.5598 99.0488ZM87.0955 95.1628C87.0331 93.7861 87.3274 92.1285 88.447 90.7905L91.5146 93.3576C91.2361 93.6904 91.058 94.2452 91.0914 94.9815L87.0955 95.1628ZM90.4462 90.1289L90.6169 90.1698L89.6862 94.06L89.5155 94.0191L90.4462 90.1289ZM92.0926 91.6331C92.3666 92.737 92.5219 93.4702 92.7485 94.254L88.906 95.3652C88.6522 94.4875 88.445 93.5417 88.2104 92.5967L92.0926 91.6331ZM92.7357 94.2113C92.9004 94.7366 93.0039 95.301 93.0767 95.648C93.1611 96.0503 93.2301 96.3109 93.3234 96.5284L89.6475 98.1058C89.3884 97.5019 89.2551 96.9133 89.162 96.4695C89.0572 95.9705 89.0079 95.6918 88.9189 95.408L92.7357 94.2113ZM93.3219 96.5248C93.5951 97.1582 93.9651 97.7457 94.4187 98.2664L91.4026 100.894C90.6777 100.062 90.0861 99.1224 89.6491 98.1093L93.3219 96.5248ZM94.438 98.289C94.85 98.7763 95.3876 99.2079 96.0369 99.5645L94.1112 103.07C93.0887 102.509 92.1509 101.779 91.3832 100.871L94.438 98.289ZM96.9493 102.013L96.8885 102.177L93.1381 100.786L93.1988 100.622L96.9493 102.013Z" fill="white" fill-opacity="0.8" mask="url(#path-21-inside-3_111_140)"/>
<mask id="path-23-inside-4_111_140" fill="white">
<path d="M95 110.034C94.4845 109.895 93.9943 109.654 93.5074 109.384C93.0241 109.097 92.5706 108.749 92.1554 108.346C91.7399 107.946 91.2223 107.585 91.0199 106.972C90.8094 106.378 90.7015 105.712 90.9114 104.973L91.0601 104.902C91.6631 105.234 92.0319 105.596 92.3729 105.976C92.7213 106.338 92.8293 106.896 93.1025 107.349C93.3776 107.805 93.6765 108.241 93.9976 108.655C94.3176 109.09 94.687 109.477 95.0741 109.871L95 110.034Z"/>
</mask>
<path d="M95 110.034L96.8206 110.862L96.118 112.407L94.479 111.965L95 110.034ZM93.5074 109.384L92.5354 111.132L92.5105 111.118L92.486 111.103L93.5074 109.384ZM92.1554 108.346L93.5425 106.905L93.5478 106.91L92.1554 108.346ZM91.0199 106.972L92.9051 106.305L92.9122 106.325L92.9189 106.345L91.0199 106.972ZM90.9114 104.973L88.9877 104.426L89.2346 103.558L90.0491 103.169L90.9114 104.973ZM91.0601 104.902L90.1979 103.098L91.124 102.655L92.0235 103.15L91.0601 104.902ZM92.3729 105.976L90.9319 107.363L90.9077 107.338L90.8845 107.312L92.3729 105.976ZM93.1025 107.349L91.3905 108.383L91.3903 108.383L93.1025 107.349ZM93.9976 108.655L95.5786 107.43L95.5938 107.45L95.6086 107.47L93.9976 108.655ZM95.0741 109.871L96.5005 108.469L97.4631 109.448L96.8947 110.699L95.0741 109.871ZM94.479 111.965C93.7259 111.761 93.0664 111.427 92.5354 111.132L94.4793 107.636C94.9223 107.882 95.2432 108.028 95.521 108.103L94.479 111.965ZM92.486 111.103C91.8646 110.734 91.2871 110.29 90.7631 109.782L93.5478 106.91C93.854 107.207 94.1836 107.459 94.5287 107.664L92.486 111.103ZM90.7684 109.787C90.6939 109.715 90.6223 109.652 90.4892 109.532C90.3726 109.426 90.2169 109.283 90.06 109.119C89.7402 108.783 89.349 108.29 89.1208 107.6L92.9189 106.345C92.8932 106.267 92.8619 106.261 92.9554 106.359C93.0052 106.411 93.0695 106.472 93.1731 106.566C93.2602 106.645 93.4092 106.777 93.5425 106.905L90.7684 109.787ZM89.1346 107.64C88.8353 106.795 88.6294 105.686 88.9877 104.426L92.8351 105.521C92.7735 105.737 92.7835 105.961 92.9051 106.305L89.1346 107.64ZM90.0491 103.169L90.1979 103.098L91.9224 106.707L91.7737 106.778L90.0491 103.169ZM92.0235 103.15C92.8992 103.631 93.4411 104.172 93.8612 104.64L90.8845 107.312C90.6228 107.02 90.4269 106.837 90.0967 106.655L92.0235 103.15ZM93.8139 104.589C94.2553 105.047 94.4858 105.567 94.6009 105.833C94.7593 106.198 94.7699 106.241 94.8148 106.316L91.3903 108.383C91.2606 108.168 91.1639 107.963 91.0941 107.806C91.0589 107.726 91.0266 107.65 91.0004 107.588C90.9721 107.521 90.9519 107.472 90.9309 107.424C90.8366 107.206 90.8389 107.266 90.9319 107.363L93.8139 104.589ZM94.8146 106.315C95.0503 106.706 95.3056 107.078 95.5786 107.43L92.4165 109.88C92.0474 109.404 91.7049 108.904 91.3905 108.383L94.8146 106.315ZM95.6086 107.47C95.8359 107.779 96.1153 108.077 96.5005 108.469L93.6476 111.273C93.2586 110.877 92.7992 110.401 92.3866 109.84L95.6086 107.47ZM96.8947 110.699L96.8206 110.862L93.1793 109.206L93.2534 109.043L96.8947 110.699Z" fill="white" fill-opacity="0.8" mask="url(#path-23-inside-4_111_140)"/>
<path d="M104.988 104.756C105.126 104.997 105.227 105.256 105.288 105.524C105.405 105.953 105.289 106.386 105.176 106.806C105.146 106.917 105.116 107.028 105.091 107.137C105.022 107.443 104.935 107.744 104.829 108.04C104.839 107.716 104.839 107.395 104.829 107.077C104.829 107.077 104.829 107.077 104.829 107.077C104.828 107.044 104.827 107.011 104.826 106.979L104.988 104.756ZM104.988 104.756C104.919 104.895 104.871 105.029 104.827 105.172L104.823 105.186L104.818 105.2C104.766 105.352 104.731 105.5 104.705 105.657C104.703 105.666 104.702 105.676 104.7 105.685C104.697 105.705 104.694 105.725 104.691 105.746L104.687 105.774L104.682 105.801C104.673 105.843 104.67 105.921 104.707 106.133C104.712 106.163 104.719 106.198 104.727 106.24C104.761 106.423 104.815 106.709 104.826 106.978L104.988 104.756ZM103.773 110.034C103.781 110.023 103.789 110.013 103.797 110.002L103.786 110L103.773 110.034ZM103.773 110.034L103.626 109.974M103.773 110.034L103.713 109.988L103.626 109.974M103.626 109.974C103.629 109.959 103.631 109.943 103.634 109.928L103.642 109.935L103.626 109.974ZM103.834 107.849C103.84 107.569 103.837 107.292 103.826 107.017C103.819 106.83 103.785 106.647 103.751 106.465L103.834 107.849ZM103.834 107.849C103.939 107.574 104.026 107.293 104.095 107.007L103.834 107.849ZM104.375 104.047L104.403 104.188L104.729 104.382C104.624 104.259 104.505 104.146 104.375 104.047ZM104.375 104.047L104.31 104.132L104.219 104.078M104.375 104.047L104.219 104.078M104.219 104.078L104.247 104.215L103.979 104.567C104.04 104.412 104.117 104.251 104.219 104.078Z" stroke="white" stroke-opacity="0.8" stroke-width="2"/>
<mask id="path-26-inside-5_111_140" fill="white">
<path d="M98.3856 105.758C98.0543 105.574 97.775 105.282 97.5236 104.951C97.279 104.602 97.0963 104.206 96.9853 103.783C96.8703 103.364 96.6744 102.875 96.8632 102.428C97.0331 101.997 97.3471 101.592 97.8885 101.481L98.0213 101.565C98.2284 102.107 98.3154 102.42 98.3657 102.726C98.4344 103.018 98.2248 103.287 98.1963 103.611C98.1673 103.94 98.174 104.271 98.2161 104.597C98.2492 104.946 98.354 105.286 98.495 105.64L98.3856 105.758Z"/>
</mask>
<path d="M98.3856 105.758L99.8491 107.121L98.7831 108.265L97.4154 107.506L98.3856 105.758ZM97.5236 104.951L95.9298 106.159L95.9079 106.13L95.887 106.1L97.5236 104.951ZM96.9853 103.783L98.9138 103.253L98.9169 103.264L98.9198 103.275L96.9853 103.783ZM96.8632 102.428L98.7238 103.161L98.7149 103.184L98.7054 103.206L96.8632 102.428ZM97.8885 101.481L97.4897 99.5216L98.2728 99.3623L98.95 99.7864L97.8885 101.481ZM98.0213 101.565L99.0828 99.8696L99.6506 100.225L99.8897 100.851L98.0213 101.565ZM98.3657 102.726L96.4188 103.183L96.4033 103.118L96.3924 103.051L98.3657 102.726ZM98.1963 103.611L100.189 103.786L100.189 103.787L98.1963 103.611ZM98.2161 104.597L100.2 104.341L100.204 104.375L100.207 104.408L98.2161 104.597ZM98.495 105.64L100.354 104.901L100.821 106.077L99.9585 107.003L98.495 105.64ZM97.4154 107.506C96.7322 107.128 96.253 106.585 95.9298 106.159L99.1174 103.742C99.2004 103.852 99.2646 103.923 99.3117 103.969C99.3581 104.013 99.3732 104.018 99.3558 104.009L97.4154 107.506ZM95.887 106.1C95.5018 105.552 95.2204 104.937 95.0508 104.29L98.9198 103.275C98.9723 103.475 99.0562 103.653 99.1602 103.801L95.887 106.1ZM95.0567 104.312C95.0445 104.268 94.9009 103.813 94.8394 103.456C94.7653 103.026 94.7199 102.362 95.0209 101.649L98.7054 103.206C98.7598 103.078 98.7788 102.961 98.7834 102.88C98.7876 102.804 98.7791 102.764 98.7812 102.776C98.7837 102.79 98.7915 102.828 98.8157 102.913C98.8278 102.956 98.8404 102.999 98.8578 103.058C98.8738 103.112 98.8941 103.181 98.9138 103.253L95.0567 104.312ZM95.0026 101.694C95.3099 100.915 96.0349 99.8176 97.4897 99.5216L98.2872 103.441C98.3529 103.428 98.4253 103.402 98.4961 103.363C98.5658 103.324 98.6193 103.28 98.6572 103.242C98.7275 103.171 98.7371 103.128 98.7238 103.161L95.0026 101.694ZM98.95 99.7864L99.0828 99.8696L96.9597 103.26L96.8269 103.176L98.95 99.7864ZM99.8897 100.851C100.123 101.462 100.259 101.913 100.339 102.401L96.3924 103.051C96.3719 102.927 96.3338 102.752 96.1529 102.278L99.8897 100.851ZM100.313 102.268C100.484 102.997 100.276 103.603 100.218 103.78C100.163 103.945 100.176 103.9 100.16 103.951C100.159 103.956 100.179 103.891 100.189 103.786L96.2039 103.437C96.2274 103.17 96.2849 102.949 96.3285 102.803C96.3504 102.73 96.372 102.666 96.3866 102.623C96.4051 102.568 96.4095 102.556 96.4173 102.532C96.4311 102.49 96.4083 102.55 96.3933 102.652C96.376 102.77 96.3661 102.959 96.4188 103.183L100.313 102.268ZM100.189 103.787C100.172 103.972 100.176 104.158 100.2 104.341L96.2326 104.853C96.1719 104.383 96.1623 103.907 96.2041 103.435L100.189 103.787ZM100.207 104.408C100.215 104.488 100.244 104.627 100.354 104.901L96.6364 106.379C96.4637 105.944 96.2837 105.404 96.2251 104.786L100.207 104.408ZM99.9585 107.003L99.8491 107.121L96.9221 104.394L97.0315 104.277L99.9585 107.003Z" fill="white" fill-opacity="0.8" mask="url(#path-26-inside-5_111_140)"/>
<path d="M113.433 112.406C113.429 112.427 113.425 112.451 113.421 112.477C113.471 112.412 113.519 112.347 113.567 112.274C113.706 112.065 113.735 111.951 113.738 111.886L113.738 111.872L113.739 111.859C113.742 111.809 113.744 111.76 113.744 111.712C113.678 111.813 113.616 111.915 113.554 112.019L113.543 112.037L113.532 112.054C113.505 112.096 113.474 112.17 113.433 112.406Z" stroke="white" stroke-opacity="0.8" stroke-width="2"/>
<path d="M126.717 147.663C137.95 151.043 145.07 161.494 147.575 172.128C150.864 186.093 147.674 200.757 144.194 214.383C140.501 228.851 135.655 243.018 131.999 257.494C128.349 271.947 125.878 286.911 127.311 301.813C128.694 316.192 134.305 329.774 136.37 344.037C136.632 345.849 136.835 347.67 136.963 349.495L136.26 347.676" stroke="white" stroke-opacity="0.8" stroke-width="2"/>
<path d="M144.677 346.074C146.067 350.362 147.507 354.633 148.953 358.902" stroke="white" stroke-opacity="0.8" stroke-width="2"/>
<path d="M144.715 134.835C138.592 146.364 149.002 158.9 152.254 169.643C155.861 181.563 155.447 194.265 153.287 206.402C151.049 218.979 146.84 231.078 142.89 243.21C138.893 255.488 135.111 267.962 133.952 280.855C132.774 293.947 134.352 307.114 137.252 319.901C137.616 321.503 137.999 323.101 138.401 324.694" stroke="white" stroke-opacity="0.8" stroke-width="2"/>
<path d="M225.923 213.515C234.47 214.802 241.395 216.757 246.353 218.416C246.353 218.416 264.348 224.433 278.883 237.501C280.737 239.168 283.098 241.881 284.36 245.919C285.367 249.141 285.082 252.914 282.952 255.537C279.249 260.099 272.132 259.441 266.824 261.979C258.19 266.106 255.81 277.802 247.754 282.961C245.968 284.105 243.942 284.894 242.345 286.288C237.941 290.132 238.2 297.062 235.147 302.041C232.999 305.546 229.048 308.62 229.606 312.689C229.94 315.119 231.85 316.979 233.146 319.065C236.032 323.71 235.873 329.593 235.057 334.996C233.901 342.633 231.632 350.061 228.321 357.044C235.61 358.46 241.137 349.281 248.559 349.044C251.99 348.936 255.181 350.793 258.591 351.184C267.66 352.226 274.788 343.087 283.786 341.55C287.679 340.885 292.406 341.389 294.806 338.263C295.912 336.825 296.199 334.928 297.059 333.331C299.998 327.88 307.944 327.902 312.798 324.043C320.147 318.201 318.184 305.69 324.939 299.174C326.76 297.417 329.115 296.224 330.704 294.256C333.172 291.198 333.303 286.77 332.034 283.055C330.987 279.99 329.437 277.64 325.872 273.08C323.736 270.346 322.763 269.573 321.07 266.953C319.702 264.834 318.554 262.581 317.645 260.23" stroke="white" stroke-opacity="0.8" stroke-width="2"/>
<path d="M260.131 224.633C269.672 226.712 275.699 230.434 279.387 233.36C286.558 239.048 288.498 244.411 295.551 245.844C299.391 246.624 303.344 245.565 307.117 244.515C311.211 243.376 315.524 242.107 318.406 239.036C320.315 237 321.406 234.358 323.098 232.144C325.89 228.495 330.372 226.143 335.016 225.894C335.73 225.855 336.504 225.881 337.077 226.302C337.617 226.698 337.866 227.362 338.088 227.986C339.709 232.56 341.347 237.476 340.058 242.15C339.437 244.399 338.156 246.476 337.904 248.793C337.35 253.874 341.825 258.948 340.003 263.735C338.738 267.057 334.636 268.164 333.24 268.578C327.166 270.38 322.047 267.015 321.321 266.521" stroke="white" stroke-opacity="0.8" stroke-width="2"/>
<path d="M226.13 213.515C225.126 214.112 224.177 214.801 223.295 215.573C218.788 219.519 218.523 223.521 215.12 227.668C212.944 230.321 211.177 231.064 208.258 232.98C199.18 238.939 190.939 247.656 189.417 258.517C188.543 264.746 189.961 271.045 191.369 277.171L195.869 296.747C196.783 300.725 197.704 304.722 199.226 308.503C203.559 319.262 209.102 323.645 215.446 332.044C219.468 337.368 224.552 345.479 228.488 357.192" stroke="white" stroke-opacity="0.8" stroke-width="2"/>
<path d="M233.62 213.852C234.91 208.214 240.264 203.785 246.018 203.597C249.227 203.493 252.38 204.565 255.59 204.536C258.632 204.51 261.569 203.499 264.56 202.945C271.11 201.733 277.045 202.61 286.37 204.812C306.432 209.551 332.246 224.179 334.535 225.488" stroke="white" stroke-opacity="0.8" stroke-width="2"/>
<path d="M237.04 299.59C237.962 301.96 240.074 306.326 244.628 309.588C246.388 310.849 248.969 312.698 252.279 312.72C254.781 312.736 258.401 312.52 263.131 306.18C268.17 299.427 272.622 291.947 279.462 287.06C282.206 285.099 285.38 283.505 287.211 280.66C288.186 279.143 288.723 277.341 289.9 275.977C292.291 273.205 296.626 272.968 299.219 270.388C301.371 268.247 301.974 264.825 304.303 262.881C307.82 259.944 313.211 261.793 317.562 260.391C323.135 258.594 323.647 254.663 328.207 254.568C331.051 254.508 333.235 255.821 334.178 256.493C338.483 259.56 338.782 264.823 338.811 265.56" stroke="white" stroke-opacity="0.8" stroke-width="2"/>
<path d="M235.33 325.742C235.818 327.448 237.56 332.706 242.764 336.121C244.084 336.987 248.633 340.476 253.315 338.768C255.992 337.791 257.987 335.461 260.605 334.335C265.049 332.424 270.155 334.337 274.964 333.891C280.774 333.354 285.66 329.462 290.169 325.731C294.72 321.967 299.311 318.163 302.959 313.505C305.671 310.043 307.872 306.103 311.221 303.266C317.928 297.584 319.994 298.521 322.213 294.692C324.314 291.066 323.89 281.805 319.153 272.672C317.561 269.603 314.708 265.044 309.703 260.552" stroke="white" stroke-opacity="0.8" stroke-width="2"/>
<path d="M195.508 243.448C191.66 247.816 192.031 254.457 194.106 259.85C196.181 265.244 199.682 270.037 201.669 275.462C205.148 284.963 204.015 296.335 210.529 304.168" stroke="white" stroke-opacity="0.8" stroke-width="2"/>
<path d="M266.973 300.747C267.069 301.172 267.17 301.595 267.279 302.017C268.727 307.605 271.56 312.753 275.525 316.997" stroke="white" stroke-opacity="0.8" stroke-width="2"/>
<path d="M299.471 269.96C302.373 271.751 303.967 274.938 305.171 278.042C306.945 282.615 308.188 287.361 308.879 292.195" stroke="white" stroke-opacity="0.8" stroke-width="2"/>
<path d="M316.576 240.027C319.183 241.487 321.65 243.196 323.985 245.066C329.438 249.436 334.156 254.666 337.956 260.552" stroke="white" stroke-opacity="0.8" stroke-width="2"/>
<path d="M255.07 275.091C254.701 277.986 255.803 281.016 257.983 283.098C259.631 284.671 261.928 285.835 262.697 287.919" stroke="white" stroke-opacity="0.8" stroke-width="2"/>
<path d="M233.62 304.168C235.296 312.088 239.984 319.277 246.448 323.838" stroke="white" stroke-opacity="0.8" stroke-width="2"/>
<path d="M244.737 337.522C248.485 341.257 253.74 343.73 259.276 344.364" stroke="white" stroke-opacity="0.8" stroke-width="2"/>
<path d="M320.852 243.448C326.389 244.831 331.607 247.15 336.246 250.29" stroke="white" stroke-opacity="0.8" stroke-width="2"/>
<path d="M213.094 229.224C203.995 219.872 190.616 208.936 176.793 215.524C163.841 221.697 160.06 237.869 156.685 250.449C152.776 265.02 150.088 279.897 148.274 294.867C146.445 309.946 145.497 325.121 145.042 340.301C144.588 355.458 144.626 370.624 144.788 385.785C144.809 387.657 144.831 389.529 144.854 391.401" stroke="white" stroke-opacity="0.8" stroke-width="2"/>
<path d="M218.226 222.885C202.185 207.256 183.107 199.207 169.921 205.284C159.953 209.878 154.996 220.91 149.822 240.204C145.914 254.773 143.228 269.649 141.414 284.616C139.587 299.694 138.639 314.867 138.184 330.044C137.663 347.454 137.86 368.362 137.93 375.523C137.953 377.881 137.978 379.829 137.996 381.138" stroke="white" stroke-opacity="0.8" stroke-width="2"/>
<path d="M136.98 388.835C133.026 365.458 122.356 343.743 110.099 323.459C97.8425 303.175 83.8764 283.932 72.4035 263.193C54.86 231.481 43.3368 196.44 38.6296 160.492" stroke="white" stroke-opacity="0.8" stroke-width="2"/>
<path d="M127.478 357.192C125.32 348.162 125.166 338.567 127.979 329.648C128.792 327.071 129.925 324.615 130.993 322.128" stroke="white" stroke-opacity="0.8" stroke-width="2"/>
<path d="M84.1144 283.643C81.8692 278.011 83.7323 271.721 86.0423 266.113C88.3535 260.504 91.158 254.789 90.76 248.79C90.4232 243.713 87.8198 239.051 86.0508 234.241C84.2819 229.43 83.4298 223.797 86.3449 219.502" stroke="white" stroke-opacity="0.8" stroke-width="2"/>
<path d="M56.8423 231.475C55.2132 225.988 57.4023 220.073 57.4438 214.295C57.4762 209.797 56.2002 205.435 55.431 201.02C54.6613 196.604 54.4522 191.776 56.4372 187.859" stroke="white" stroke-opacity="0.8" stroke-width="2"/>
<path d="M131.849 369.165C130.402 363.605 124.817 359.379 119 359.443C114.138 359.496 109.737 362.167 105.015 363.315C96.347 365.421 86.5479 361.817 81.3906 354.626" stroke="white" stroke-opacity="0.8" stroke-width="2"/>
<path d="M105.337 316.141C102.331 312.232 97.5165 307.284 90.4437 304.922C82.3671 302.226 77.4726 304.947 68.7364 302.887C64.0254 301.776 57.5786 299.128 50.6027 292.195" stroke="white" stroke-opacity="0.8" stroke-width="2"/>
<path d="M65.9966 251.145C64.5747 246.651 61.265 242.797 57.0551 240.733C54.0115 239.24 50.5669 238.659 47.6266 236.969C43.0115 234.317 40.279 229.354 37.7744 224.633" stroke="white" stroke-opacity="0.8" stroke-width="2"/>
<path d="M47.1818 202.397C46.5846 200.366 45.4054 197.496 42.8502 194.998C40.0417 192.254 37.6406 191.98 35.1275 190.08C32.7299 188.267 30.0269 184.819 29.2222 177.596" stroke="white" stroke-opacity="0.8" stroke-width="2"/>
<path d="M138.083 352.916C137.576 353.28 137.163 353.28 137.163 353.654C137.163 356.646 136.75 359.638 137.163 362.63C138.816 370.857 141.295 378.336 143.821 386.269" stroke="white" stroke-opacity="0.8" stroke-width="2"/>
<path d="M144.784 335.73C147.425 334.291 154.005 334.588 151.999 338.966C151.2 340.711 149.174 340.988 147.849 342.212C146.433 343.52 145.684 345.346 144.677 346.929" stroke="white" stroke-opacity="0.8" stroke-width="2"/>
<path d="M134.947 337.522C132.549 338.791 131.289 342.914 135.269 342.64" stroke="white" stroke-opacity="0.8" stroke-width="2"/>
<path d="M146.39 317.903C147.861 316.483 149.419 316.855 150.74 318.165C152.07 319.485 152.673 320.771 152.229 322.585C151.48 325.646 148.563 327.905 145.532 328.97" stroke="white" stroke-opacity="0.8" stroke-width="2"/>
<path d="M148.34 293.929C150.322 293.674 151.84 295.581 151.46 297.107C149.942 302.828 149.183 308.55 146.387 313.576" stroke="white" stroke-opacity="0.8" stroke-width="2"/>
<path d="M142.111 278.512C138.629 281.304 137.282 287.078 140.575 290.485" stroke="white" stroke-opacity="0.8" stroke-width="2"/>
<path d="M136.98 262.523C138.607 261.64 140.341 260.978 142.137 260.552C142.533 262.314 143.181 264.002 143.821 265.683" stroke="white" stroke-opacity="0.8" stroke-width="2"/>
<path d="M49.587 169.899C49.4824 171.033 49.1146 171.77 48.3778 172.507C47.2726 174.35 48.0094 176.561 48.7462 178.403C48.7462 178.771 48.7462 179.14 48.3778 179.509C41.0114 185.404 46.168 194.985 49.4824 201.618C49.4824 201.986 50.2193 203.092 51.6929 201.618C52.0613 201.249 52.0613 200.512 52.0613 199.775C50.2193 194.616 47.2726 190.195 46.9048 184.667L47.2726 184.299M47.2726 184.299C47.641 184.299 47.641 184.667 48.0094 184.667M47.2726 184.299C46.9048 184.667 47.2726 185.036 47.641 185.036L48.0094 184.667M47.2726 184.299H48.0094C49.4824 186.141 48.7462 189.826 51.3245 190.932C53.5343 189.826 51.3245 186.878 51.3245 185.036C51.3245 183.194 52.7981 182.088 54.2711 180.614C55.7442 178.771 54.6395 176.561 55.0079 174.35C55.3758 173.613 55.7442 172.138 56.8494 172.138C60.5328 172.876 60.1644 177.298 60.9007 180.614C61.2691 183.562 63.4789 185.404 65.321 187.615C66.4256 189.458 66.4256 192.037 64.2157 193.511C61.6375 194.985 59.0592 196.09 58.6908 199.039C58.6908 199.775 59.0592 200.512 60.2964 200.934M48.0094 184.667H47.2726C47.3805 184.446 47.4919 184.224 47.6056 184.006C48.0094 183.93 48.0094 184.299 48.0094 184.667ZM60.2964 200.934C59.1769 200.939 60.4209 199.449 60.2964 200.934ZM60.2964 200.934C59.3094 199.287 63.1294 199.828 63.7651 199.816C66.3753 199.764 66.995 196.995 68.0346 195.121C69.4882 196.297 71.1954 198.269 70.0862 200.221C69.1946 201.789 67.1121 202.07 66.156 203.571C65.0297 205.34 66.694 207.087 66.3108 208.921C65.883 210.968 63.7485 210.618 62.2098 211.09C60.1205 211.73 60.2872 213.854 60.8755 215.565M60.8755 215.565C60.3466 214.817 61.3719 214.736 60.8755 215.565ZM60.8755 215.565C62.015 213.626 63.2345 212.881 64.1632 212.567C65.285 212.188 65.9801 212.438 67.0048 211.936C68.3082 211.296 68.9941 210.004 69.3723 208.988C70.5883 209.576 71.9785 210.435 71.9168 211.454C71.9002 211.732 71.7969 212.018 71.5821 212.304C69.7407 214.883 67.8992 217.463 68.2676 220.779C66.794 222.99 63.8473 222.622 61.6375 223.727C62.3743 224.832 59.4276 224.832 61.6375 226.306C63.1111 227.043 64.9526 225.938 66.4256 225.938C66.794 225.938 67.1624 226.306 67.1624 226.675C67.5308 228.886 65.321 230.36 64.2157 231.834C60.1644 238.098 67.1624 242.152 70.1091 246.942C71.9505 249.89 71.9505 253.575 73.4241 256.522C74.1604 257.997 75.2656 259.47 76.7392 260.207C77.8438 260.576 79.3174 259.47 79.6853 258.733C80.0537 257.997 80.0537 256.891 79.6853 255.786C77.8438 250.626 76.0024 245.836 73.792 241.046C73.4241 239.941 73.4241 238.835 74.1604 237.729C74.8972 237.361 76.0024 236.993 76.0024 237.729C76.3708 242.52 77.8438 248.784 83.0003 249.521C84.8424 249.89 84.4739 247.31 83.7371 245.836C82.2635 243.625 79.6853 242.152 79.6853 239.204C80.0537 235.519 79.3174 232.202 76.0024 229.991C74.1604 228.149 75.2656 225.57 74.5288 223.359C74.5288 222.99 73.792 222.99 73.792 222.622C73.4241 221.148 74.5288 219.674 76.0024 220.042C78.949 221.148 77.8438 224.464 77.8438 227.043C77.8438 228.149 78.5806 229.623 80.0537 229.255C80.7905 228.886 81.1589 227.78 81.1589 227.043C79.3174 223.359 78.949 218.937 81.1589 214.883C81.1589 214.515 81.1589 213.778 80.7905 213.409C77.107 209.725 77.8438 204.934 81.1589 201.249C81.8951 200.144 81.5273 198.67 81.3074 197.324M81.3074 197.324C81.7512 198.214 82.6302 197.578 81.3074 197.324ZM81.3074 197.324C83.3687 197.933 84.1055 200.144 84.474 202.355C84.8424 204.934 84.8424 207.145 86.3154 209.356C91.1035 211.567 96.26 216.726 92.9455 222.253C91.1035 225.201 88.1568 227.043 88.1568 230.728C88.5252 232.571 88.736 235.196 91.7164 234.377C89.7236 231.378 92.9198 228.02 94.5219 225.655C95.4472 224.29 96.304 222.806 97.4949 221.65C97.9981 221.161 98.9279 220.177 99.651 220.555C100.251 220.87 100.331 221.931 100.346 222.53C100.422 225.733 96.232 228.547 97.6245 231.666C98.3111 233.205 99.6088 234.605 99.3443 236.416C99.0867 238.179 97.6731 239.835 96.6404 241.215C94.6219 243.91 95.128 250.792 95.5238 250.995C95.9333 248.433 96.4673 246.118 98.9965 244.937C101.27 243.874 103.272 242.41 103.553 239.721M103.553 239.721C103.425 240.833 105.232 241.032 103.553 239.721ZM103.553 239.721C106.573 241.783 106.942 246.205 105.468 249.521C103.995 252.101 101.417 252.838 99.2067 254.68C98.8383 255.049 98.4699 255.786 98.4699 256.522C98.8383 260.207 97.3652 263.155 94.4186 265.366C91.8403 267.946 92.6862 273.006 92.8924 273.396C93.1346 273.853 93.5338 274.307 93.7297 274.495C94.8401 271.184 97.6748 269.362 100.522 267.673C102.89 266.103 103.995 263.892 105.468 261.682C105.837 261.313 106.942 261.313 107.31 261.682C108.783 262.787 108.783 264.998 108.047 266.84C107.678 267.208 107.31 267.946 106.942 268.683C104.732 271.262 103.259 274.21 101.785 277.527C101.417 278.263 100.68 279 99.5751 279.369C96.26 280.106 92.2087 282.317 92.5771 286.37C92.9455 289.318 94.4186 291.897 95.5238 294.477C97.3652 297.425 99.5751 300.372 101.785 302.952C105.1 306.637 108.047 309.953 111.73 313.269C113.94 315.849 115.781 318.429 117.991 321.376C119.096 322.85 120.57 323.218 122.043 322.85C122.78 322.482 123.148 321.745 123.148 321.008C122.411 317.323 121.675 313.269 124.621 310.322C125.358 306.268 121.306 304.794 119.096 302.215C117.623 300.004 118.36 297.425 118.728 294.845C118.728 294.477 118.36 294.109 118.36 293.74C116.887 291.529 112.098 287.844 116.15 286.738C120.201 285.265 119.465 291.16 120.57 294.109C120.938 295.951 122.043 296.687 123.885 296.319C124.99 295.951 125.726 295.214 125.358 294.109C124.621 291.897 122.78 290.055 123.148 287.476C123.516 286.002 125.358 284.896 125.726 283.422C126.094 280.842 123.148 279.369 121.675 277.158C121.306 276.052 121.675 274.579 122.78 273.841C124.621 273.104 124.99 276.052 125.726 277.158C126.174 277.382 126.486 278.015 127.02 278.079C127.61 278.149 128.17 277.772 128.428 277.231" stroke="white" stroke-opacity="0.8" stroke-width="2"/>
<path d="M131.849 391.401C128.693 388.386 129.429 383.208 127.956 379.14C126.483 376.181 123.169 375.072 120.222 376.181C117.276 376.921 112.857 380.249 110.646 376.181C111.751 375.441 112.857 374.702 114.329 374.332C116.907 373.592 116.907 369.894 115.066 369.154C109.91 366.565 106.595 372.853 102.912 375.811C100.334 375.811 98.1245 374.702 95.5465 376.551C94.4414 376.921 92.9684 377.29 91.8633 376.921C91.495 376.551 90.7588 376.181 91.1266 375.441C91.495 374.702 92.2317 374.702 92.9684 374.332C94.4414 372.853 97.0194 371.743 97.3878 369.524C97.3878 368.044 95.9149 368.044 94.8097 367.675C90.7588 366.935 87.444 369.894 83.3925 371.004C80.4467 371.743 78.6048 369.524 76.7635 367.305C76.3952 366.565 75.6584 365.455 74.9217 364.716C71.2391 358.429 68.2927 352.881 64.2417 346.964C62.7683 344.745 60.9264 343.266 59.221 341.707M59.221 341.707C59.7173 341.881 60.2268 342.074 60.61 342.448C60.0709 342.392 59.5974 342.084 59.221 341.707ZM59.221 341.707C60.5586 342.526 62.0315 342.156 63.5044 342.156C68.2927 341.416 73.4488 340.307 77.1313 343.635C80.0783 346.964 82.288 352.141 87.0756 352.511C88.1808 352.511 89.6537 352.141 89.6537 350.292C89.2853 348.813 88.1808 348.073 87.0756 347.334C85.2338 346.594 83.0241 345.484 83.7609 343.266C84.1292 342.526 85.2338 341.786 86.7073 342.156C89.2853 342.896 89.6537 345.484 91.495 347.334C92.9685 348.813 95.1781 348.813 97.3878 348.813C98.8613 349.183 100.703 349.552 101.439 351.402C102.175 353.621 101.439 356.21 103.281 357.689C104.386 358.429 106.227 358.429 107.332 356.95C108.068 355.47 107.7 353.621 106.964 352.141C105.122 349.552 101.439 347.703 102.002 344.058M102.002 344.058C101.931 344.94 103.06 344.688 102.002 344.058ZM102.002 344.058C104.343 347.491 108.927 346.102 112.365 346.083C116.536 346.06 118.457 349.437 119.968 352.844C120.781 354.679 121.807 357.282 124.247 357.088M124.247 357.088C124.031 356.591 123.805 356.089 123.466 355.662C123.551 356.212 123.819 356.73 124.247 357.088ZM124.247 357.088C119.854 347.333 115.434 338.458 109.173 329.581C108.068 328.102 106.227 326.993 104.386 327.732C102.912 328.472 101.439 328.842 99.9658 329.212H98.4929C94.4414 327.732 90.3904 327.362 85.9705 328.102C85.2338 328.102 84.1292 327.362 84.1292 326.623C84.4976 325.883 85.2338 324.774 85.9705 324.404C87.0756 324.034 87.8124 323.294 88.5491 322.554C91.1266 320.335 94.4414 319.965 97.7561 321.075C98.4929 321.444 99.5974 321.075 99.9658 320.705C100.703 318.856 98.8613 317.007 97.3878 316.637C95.1781 315.897 92.2317 315.158 90.022 317.007C88.1808 318.856 86.7073 322.184 83.7609 321.444C80.8145 320.335 77.8681 321.075 74.9217 322.184C73.8171 322.184 72.3442 322.924 71.2391 321.814C70.5024 320.705 71.6075 319.595 72.712 318.856C77.1313 316.267 81.5512 314.788 86.3389 313.308M86.3389 313.308C85.3372 313.622 85.5553 311.259 86.3389 313.308ZM86.3389 313.308C83.3925 308.501 78.6048 312.939 74.5539 313.678C72.3442 314.048 70.134 312.199 67.9243 312.199C66.083 312.199 64.2417 314.048 62.3999 314.418C61.2948 314.418 60.1902 314.788 59.0851 313.678C58.7167 312.939 58.3489 312.199 59.0851 311.459C60.5586 309.98 62.7683 309.98 64.9117 310.636M64.9117 310.636C63.9202 310.365 64.9077 309.089 64.9117 310.636ZM64.9117 310.636C63.2577 305.453 56.6219 308.125 52.8045 307.86C49.805 307.651 47.8929 305.357 46.3777 302.988C44.2657 299.686 42.3582 296.268 40.3433 292.909C38.4563 289.762 35.864 286.467 35.8828 282.612M35.8828 282.612C35.8491 285.278 37.0833 283.106 35.8828 282.612ZM35.8828 282.612C38.0925 286.68 43.2486 285.201 46.9317 284.091C47.2995 284.091 48.0368 284.091 48.4046 284.461C50.2465 285.94 50.6143 288.159 52.8245 289.269C54.6658 290.008 56.5071 290.008 57.9806 291.118C59.4535 292.597 59.8219 294.816 60.5586 296.666C60.9264 297.775 62.3999 297.405 63.5044 297.405C63.5044 296.296 64.6095 295.556 64.2417 294.447C63.5044 291.858 60.9264 290.748 59.4535 288.899C58.3489 287.42 57.2438 285.571 57.6122 283.722C57.6122 282.612 58.7167 281.132 60.1902 281.872C62.0315 283.352 62.7683 285.571 64.2417 287.42C67.1876 290.378 68.6611 294.077 71.2391 297.775C71.9758 299.255 75.29 300.364 76.0268 298.145C77.4997 294.816 73.8171 294.077 71.6075 292.228C70.5024 290.748 71.6075 288.899 73.4488 288.529C74.1855 288.159 75.29 288.529 76.0268 289.269C77.8681 291.488 78.6048 293.707 79.7099 296.296C80.8145 298.145 82.288 299.255 84.4976 298.885C85.6022 298.515 87.0756 298.515 86.7073 296.666C86.3389 294.077 84.866 291.488 82.6563 289.639C79.3416 285.94 76.3952 282.242 73.4488 277.804C70.5024 272.996 69.7656 267.819 67.9243 263.01C67.1876 261.531 65.7147 260.791 64.2417 260.051C62.3999 259.312 59.8219 260.421 57.9806 259.312C57.6122 258.942 55.7709 257.833 57.9806 257.093C58.3489 256.723 59.4535 257.463 60.1902 257.093C61.6631 256.353 62.3999 254.874 61.6631 253.395C58.7167 248.956 53.5607 253.395 50.2465 255.244C49.1414 255.984 47.6679 256.353 46.195 256.353C43.9853 256.353 41.7756 254.874 40.3022 253.025C39.9344 252.285 39.5654 251.176 38.2913 250.644M38.2913 250.644C38.9355 251.619 39.0537 250.03 38.2913 250.644ZM38.2913 250.644C39.0154 250.337 39.2656 250.006 40.04 250.22C40.7191 250.407 41.3462 250.88 41.9898 251.161C43.5872 251.857 44.6866 251.344 46.2898 250.989C48.5708 250.484 53.6806 250.296 53.6612 246.955C53.6395 243.213 48.243 244.729 46.3223 245.423C44.9876 245.906 43.6164 246.533 42.441 245.39C41.5066 244.481 41.2194 243.275 39.9344 242.669C37.7139 241.623 31.7645 243.51 31.1997 240.014C30.7411 237.178 36.8029 238.874 38.2456 238.963C39.2821 239.025 42.2131 239.073 42.1943 237.653C42.1794 236.509 40.7059 235.838 39.779 235.617C37.4271 235.058 34.4265 235.33 33.4784 232.529C32.9062 230.837 33.2043 228.998 32.7537 227.281C32.2642 225.416 30.9764 224.147 30.9438 222.113C30.893 218.968 33.9113 214.783 30.8833 212.408M30.8833 212.408C31.4041 213.182 32.3042 211.729 30.8833 212.408ZM30.8833 212.408C33.0627 211.468 34.4145 214.272 35.0736 215.862C35.5053 216.905 35.796 218.001 36.3803 218.974C37.1627 220.278 38.273 221.343 39.1034 222.613C40.2011 224.291 41.0555 228.773 43.7494 228.65C45.4696 228.571 44.6272 225.685 44.3857 224.684C44.0498 223.287 43.6803 221.889 43.1469 220.553C42.4267 218.748 41.0058 217.307 41.0389 215.301C42.9716 215.368 44.4068 217.367 45.4217 218.793C47.6679 221.958 50.9827 226.027 48.773 230.095C48.0368 231.574 48.773 233.053 50.2465 234.163C50.9827 234.532 52.4561 235.273 52.8245 234.163C53.9291 232.313 52.8245 230.095 52.8245 228.246C51.7194 221.219 48.0368 215.671 45.8266 209.014C45.0899 207.165 43.9853 205.316 42.144 205.316C39.9344 204.946 38.0925 206.055 35.8828 205.316C33.3048 204.206 30.7268 202.726 28.1488 201.247M28.1488 201.247C28.4395 200.823 30.5566 202.788 28.1488 201.247ZM28.1488 201.247C28.4395 200.823 29.7576 199.295 29.9775 200.569C30.1682 201.672 28.7444 201.609 28.1488 201.247ZM28.1488 201.247C30.2162 198.212 33.8919 202.975 36.4551 201.941C37.3649 201.574 37.9269 200.501 37.7567 199.54C37.4957 198.059 36.2284 198.002 35.0182 198.009C33.6235 198.017 32.9701 197.331 31.9153 196.525C30.7568 195.643 29.5003 194.899 28.171 194.308C26.0619 193.375 23.26 192.819 22.6649 190.196M22.6649 190.196C22.7345 191.25 23.6461 189.966 22.6649 190.196ZM22.6649 190.196C24.5696 190.232 27.3766 192.111 28.8849 190.152C27.2807 188.883 28.2344 186.668 27.7261 184.982C27.1059 182.922 25.1407 183.345 23.4987 182.872C19.1753 181.627 23.304 174.469 23.3011 171.73C23.2988 169.521 23.6849 167.554 22.8031 167.297C21.9327 167.043 23.2508 165.527 23.5295 165.211C23.8105 166.924 24.2126 168.798 25.3309 170.179C26.3366 171.422 27.8432 171.699 29.1259 172.529C31.5315 174.085 31.2459 177.385 31.8285 179.851M31.8285 179.851C31.1203 178.598 32.2968 179.033 31.8285 179.851ZM31.8285 179.851C32.3002 179.023 33.6229 177.297 34.2306 179.005C34.6487 180.18 33.7252 181.54 34.2637 182.692C34.9142 184.085 36.3352 183.495 36.8469 182.396C37.4945 181.006 37.4888 179.207 37.0942 177.759C36.1821 174.418 32.8131 172.588 31.6668 169.379C30.9758 167.446 31.7691 166.05 32.4995 164.292C33.3197 162.318 32.8428 160.325 33.1038 158.271C33.6218 154.181 38.3255 149.902 37.7778 149.353C37.3124 148.887 38.8664 147.865 39.1633 147.663C38.7356 148.873 38.743 150.185 39.0971 151.412" stroke="white" stroke-opacity="0.8" stroke-width="2"/>
</svg>
