<svg width="989" height="171" viewBox="0 0 989 171" fill="none" xmlns="http://www.w3.org/2000/svg">
<path d="M8.4 162.025C2.8 162.025 -5.21541e-07 160.217 -5.21541e-07 156.6C-5.21541e-07 154.033 0.758333 152.167 2.275 151C1.925 152.167 1.75 153.333 1.75 154.5C1.75 157.883 4.08333 159.575 8.75 159.575C16.6833 159.575 25.9583 155.608 36.575 147.675C34.125 146.392 32.025 144.992 30.275 143.475C20.475 151.175 13.3 155.025 8.75 155.025C7 155.025 6.125 154.5 6.125 153.45C6.125 152.633 6.59167 152.225 7.525 152.225C7.75833 152.225 8.10833 152.283 8.575 152.4C8.925 152.517 9.21667 152.575 9.45 152.575C13.8833 152.575 20.4167 149.192 29.05 142.425C25.2 138.692 23.275 134.9 23.275 131.05C23.275 122.883 30.8 115.592 45.85 109.175C48.8833 107.892 52.2083 106.783 55.825 105.85C59.5583 104.8 63.5833 103.867 67.9 103.05C69.4167 101.067 70.8167 99.2 72.1 97.45C73.3833 95.5833 74.4917 93.8333 75.425 92.2C75.075 89.1667 74.9 86.6583 74.9 84.675C74.9 77.325 76.2417 73.65 78.925 73.65C80.5583 73.65 81.8417 75.5167 82.775 79.25C83.9417 77.6167 85.3417 75.3417 86.975 72.425C88.6083 69.3917 90.4167 65.7167 92.4 61.4C95.4333 55.1 98.2917 48.625 100.975 41.975C103.658 35.325 106.167 28.5 108.5 21.5C108.967 20.2167 109.492 19.2833 110.075 18.7C110.192 18.8167 110.25 19.05 110.25 19.4C110.25 28.2667 102.142 47.8083 85.925 78.025C87.5583 77.2083 88.8417 76.8 89.775 76.8C90.475 76.8 90.825 77.2083 90.825 78.025C90.825 81.0583 86.1583 86.1917 76.825 93.425C76.0083 94.825 75.0167 96.3417 73.85 97.975C72.8 99.4917 71.6333 101.067 70.35 102.7C72.9167 102.233 75.8333 101.883 79.1 101.65C83.7667 95.1167 88.2583 88.35 92.575 81.35C96.8917 74.35 101.033 67.1167 105 59.65C115.267 40.5167 120.4 26.1667 120.4 16.6C120.4 11 117.892 7.79166 112.875 6.975C111.825 6.74166 111.3 6.39166 111.3 5.92499C111.3 5.22499 111.942 4.87499 113.225 4.87499C117.775 4.87499 121.275 6.33333 123.725 9.24999C126.175 12.05 127.4 15.725 127.4 20.275C127.4 30.425 122.558 44.3667 112.875 62.1C109.258 68.75 105.292 75.3417 100.975 81.875C96.6583 88.2917 92.1083 94.65 87.325 100.95C89.3083 100.717 92.1083 100.542 95.725 100.425C99.3417 100.192 103.658 99.9583 108.675 99.725C112.058 99.6083 114.508 99.55 116.025 99.55C117.542 99.4333 118.242 99.375 118.125 99.375C118.825 99.375 119.175 99.55 119.175 99.9C119.175 101.067 118.008 101.767 115.675 102C113.458 102.117 110.133 102.35 105.7 102.7C101.383 102.933 97.4167 103.225 93.8 103.575C90.3 103.808 87.2083 104.1 84.525 104.45C69.5917 123.117 55.3 137.525 41.65 147.675C44.6833 149.192 50.1667 150.65 58.1 152.05C59.15 152.167 59.675 152.517 59.675 153.1C59.675 153.683 59.0917 153.975 57.925 153.975C52.7917 153.975 46.725 152.342 39.725 149.075C27.5917 157.708 17.15 162.025 8.4 162.025ZM147 150.65C142.683 150.65 138.192 148.783 133.525 145.05C128.975 141.317 125.708 137.233 123.725 132.8C121.158 127.2 119.875 119.15 119.875 108.65C119.875 105.5 120.342 99.8417 121.275 91.675C122.208 83.3917 123.258 72.6583 124.425 59.475L126 41.8C126.117 39.5833 126.525 38.475 127.225 38.475C128.508 38.475 129.15 39.7583 129.15 42.325V71.725C129.15 103.808 131.775 125.917 137.025 138.05C140.175 145.283 143.85 148.9 148.05 148.9C153.533 148.9 159.6 143.592 166.25 132.975C166.133 135.192 164.85 137.933 162.4 141.2C159.833 144.7 157.558 147.033 155.575 148.2C152.658 149.833 149.8 150.65 147 150.65ZM38.675 146.1C50.3417 136.767 62.7667 123.35 75.95 105.85C74.2 106.2 72.45 106.608 70.7 107.075C69.0667 107.425 67.4333 107.833 65.8 108.3C55.7667 120.317 44.9167 131.225 33.25 141.025C33.8333 141.958 34.5917 142.833 35.525 143.65C36.4583 144.467 37.5083 145.283 38.675 146.1ZM32.375 139.8C37.625 135.483 42.7583 130.758 47.775 125.625C52.9083 120.492 57.9833 115.008 63 109.175C55.4167 111.625 48.825 114.775 43.225 118.625C35.2917 123.875 31.325 129.3 31.325 134.9C31.325 136.533 31.675 138.167 32.375 139.8ZM150.19 131.925C149.14 131.925 148.615 131.167 148.615 129.65V129.3C149.081 127.667 149.548 125.625 150.015 123.175C150.598 120.725 151.24 117.867 151.94 114.6C152.64 111.333 153.515 107.25 154.565 102.35C155.615 97.3333 156.898 91.5583 158.415 85.025L156.315 79.95C155.731 78.4333 155.265 77.325 154.915 76.625C154.681 75.925 154.565 75.575 154.565 75.575C154.565 74.7583 155.556 74 157.54 73.3C163.373 71.0833 167.106 69.975 168.74 69.975C170.49 69.975 171.365 70.5 171.365 71.55C171.248 71.2 168.273 78.6667 162.44 93.95V95.525C162.44 98.7917 161.915 100.425 160.865 100.425C160.748 100.425 160.573 100.25 160.34 99.9C159.406 102.817 158.473 105.617 157.54 108.3C156.723 110.867 155.965 113.433 155.265 116C157.831 111.8 160.456 107.775 163.14 103.925C165.94 100.075 168.798 96.4583 171.715 93.075C180.465 82.925 187.698 77.85 193.415 77.85C196.098 77.85 197.44 78.9 197.44 81C197.44 81.7 197.265 82.575 196.915 83.625C195.981 87.5917 194.698 92.6083 193.065 98.675C191.431 104.625 189.506 111.567 187.29 119.5C194.056 114.483 199.306 109.117 203.04 103.4C203.623 102.7 204.031 102.35 204.265 102.35C204.615 102.35 204.79 102.583 204.79 103.05C204.79 103.283 204.615 103.692 204.265 104.275C199.131 113.375 192.89 120.608 185.54 125.975C185.073 126.675 184.315 127.025 183.265 127.025C182.448 127.025 182.04 126.558 182.04 125.625C182.04 125.392 182.215 124.342 182.565 122.475C182.915 120.492 183.381 117.75 183.965 114.25C184.548 111.683 185.073 109.175 185.54 106.725C186.006 104.275 186.473 101.767 186.94 99.2C187.756 93.4833 188.281 88.4667 188.515 84.15C185.948 85.3167 183.148 87.2417 180.115 89.925C177.198 92.4917 173.931 95.7583 170.315 99.725C167.048 103.342 164.19 106.783 161.74 110.05C159.406 113.2 157.481 116.175 155.965 118.975C154.331 122.125 153.106 125.508 152.29 129.125C151.823 130.992 151.123 131.925 150.19 131.925ZM159.465 80.3L161.04 74.525C160.456 74.9917 159.348 75.575 157.715 76.275L159.465 80.3ZM247.155 136.65C241.671 136.65 235.313 133.5 228.08 127.2C222.596 122.417 217.696 116.933 213.38 110.75L206.73 121.6C203.93 126.033 201.246 129.3 198.68 131.4C197.746 134.083 195.938 135.425 193.255 135.425C191.971 135.425 191.33 134.958 191.33 134.025C191.33 130.758 194.713 120.433 201.48 103.05L198.155 103.4C197.455 103.4 197.105 103.283 197.105 103.05C197.105 101.417 198.855 100.542 202.355 100.425C204.221 95.9917 206.205 91.2083 208.305 86.075C210.405 80.825 212.68 75.3417 215.13 69.625C209.763 72.5417 205.913 74 203.58 74C203.113 74 202.88 73.825 202.88 73.475C202.88 72.3083 203.696 71.375 205.33 70.675L208.305 69.275C211.688 67.6417 214.721 65.8333 217.405 63.85C218.921 60.4667 220.788 56.2083 223.005 51.075C225.338 45.825 228.138 39.7 231.405 32.7C231.988 31.1833 232.746 29.375 233.68 27.275C234.73 25.175 235.896 22.6667 237.18 19.75C238.463 17.0667 241.205 15.725 245.405 15.725C247.621 15.725 248.73 16.3667 248.73 17.65C248.73 18.1167 248.205 19.6917 247.155 22.375C245.521 26.8083 243.305 31.7083 240.505 37.075C237.821 42.4417 234.555 48.2167 230.705 54.4C230.121 55.2167 229.363 56.2667 228.43 57.55C227.613 58.8333 226.621 60.35 225.455 62.1L219.855 72.95C216.938 78.6667 212.738 87.5917 207.255 99.725C209.588 97.5083 211.105 96.4 211.805 96.4C212.738 96.4 213.555 97.0417 214.255 98.325C214.488 98.2083 215.013 98.0333 215.83 97.8C216.763 97.45 217.93 96.9833 219.33 96.4C219.796 95.4667 220.38 94.3583 221.08 93.075C221.896 91.675 222.83 90.0417 223.88 88.175C225.28 85.725 226.796 83.3333 228.43 81C230.18 78.6667 232.046 76.3917 234.03 74.175C239.513 67.9917 244.005 64.9 247.505 64.9C251.238 64.9 253.105 68.8083 253.105 76.625C253.105 86.3083 242.488 93.6 221.255 98.5C220.555 99.9 219.33 101.825 217.58 104.275C221.196 110.692 225.571 116.583 230.705 121.95C237.471 129.067 243.538 132.625 248.905 132.625C251.238 132.625 253.221 131.808 254.855 130.175C256.721 128.542 257.713 127.725 257.83 127.725C258.296 127.725 258.53 127.958 258.53 128.425C258.53 128.658 258.413 129.125 258.18 129.825C255.38 134.375 251.705 136.65 247.155 136.65ZM222.83 95.525C237.296 90.275 244.53 83.625 244.53 75.575C244.53 72.3083 243.771 70.675 242.255 70.675C239.688 70.675 234.671 76.3333 227.205 87.65L222.83 95.525ZM199.38 127.9C203.58 123 207.838 116.642 212.155 108.825C211.688 108.008 211.163 107.017 210.58 105.85C209.996 104.683 209.296 103.283 208.48 101.65L206.555 101.825C205.388 104.742 204.221 108.358 203.055 112.675C201.888 116.992 200.663 122.067 199.38 127.9ZM263.568 131.575C255.284 131.575 251.143 126.208 251.143 115.475C251.143 113.842 251.201 112.092 251.318 110.225C251.551 108.242 251.901 106.142 252.368 103.925C251.901 103.575 251.434 103.108 250.968 102.525C250.501 101.825 250.034 101.008 249.568 100.075C250.034 100.192 250.501 100.425 250.968 100.775C251.551 101.008 252.251 101.242 253.068 101.475C254.351 95.6417 257.851 89.8667 263.568 84.15C269.751 77.85 275.584 74.7 281.068 74.7C282.351 74.7 282.993 74.875 282.993 75.225C282.993 75.4583 282.176 76.0417 280.543 76.975C276.226 79.3083 272.143 82.925 268.293 87.825C264.443 92.8417 261.643 97.7417 259.893 102.525L260.243 102.875C265.843 102.875 271.676 100.192 277.743 94.825C283.809 89.4583 286.843 83.975 286.843 78.375C286.843 76.625 286.376 75.05 285.443 73.65C284.509 72.25 283.226 71.55 281.593 71.55C279.259 71.55 276.634 72.4833 273.718 74.35C270.801 76.1 269.168 76.975 268.818 76.975C268.584 76.975 268.468 76.9167 268.468 76.8C268.468 75.4 270.509 73.8833 274.593 72.25C278.093 70.85 280.834 70.15 282.818 70.15C285.501 70.15 287.718 70.9083 289.468 72.425C291.334 73.9417 292.268 76.0417 292.268 78.725C292.268 84.9083 288.243 90.9167 280.193 96.75C272.959 101.883 265.959 104.742 259.193 105.325C258.259 108.125 257.793 110.808 257.793 113.375C257.793 123.058 261.293 127.9 268.293 127.9C273.659 127.9 279.259 125.567 285.093 120.9C289.993 117.05 294.076 112.383 297.343 106.9C298.393 105.267 299.268 104.45 299.968 104.45C300.084 104.45 300.143 104.567 300.143 104.8C300.143 105.267 299.676 106.317 298.743 107.95C295.126 113.667 290.051 118.917 283.518 123.7C276.401 128.95 269.751 131.575 263.568 131.575ZM315.179 131.575C306.896 131.575 302.754 126.208 302.754 115.475C302.754 113.842 302.812 112.092 302.929 110.225C303.162 108.242 303.512 106.142 303.979 103.925C303.512 103.575 303.046 103.108 302.579 102.525C302.112 101.825 301.646 101.008 301.179 100.075C301.646 100.192 302.112 100.425 302.579 100.775C303.162 101.008 303.862 101.242 304.679 101.475C305.962 95.6417 309.462 89.8667 315.179 84.15C321.362 77.85 327.196 74.7 332.679 74.7C333.962 74.7 334.604 74.875 334.604 75.225C334.604 75.4583 333.787 76.0417 332.154 76.975C327.837 79.3083 323.754 82.925 319.904 87.825C316.054 92.8417 313.254 97.7417 311.504 102.525L311.854 102.875C317.454 102.875 323.287 100.192 329.354 94.825C335.421 89.4583 338.454 83.975 338.454 78.375C338.454 76.625 337.987 75.05 337.054 73.65C336.121 72.25 334.837 71.55 333.204 71.55C330.871 71.55 328.246 72.4833 325.329 74.35C322.412 76.1 320.779 76.975 320.429 76.975C320.196 76.975 320.079 76.9167 320.079 76.8C320.079 75.4 322.121 73.8833 326.204 72.25C329.704 70.85 332.446 70.15 334.429 70.15C337.112 70.15 339.329 70.9083 341.079 72.425C342.946 73.9417 343.879 76.0417 343.879 78.725C343.879 84.9083 339.854 90.9167 331.804 96.75C324.571 101.883 317.571 104.742 310.804 105.325C309.871 108.125 309.404 110.808 309.404 113.375C309.404 123.058 312.904 127.9 319.904 127.9C325.271 127.9 330.871 125.567 336.704 120.9C341.604 117.05 345.687 112.383 348.954 106.9C350.004 105.267 350.879 104.45 351.579 104.45C351.696 104.45 351.754 104.567 351.754 104.8C351.754 105.267 351.287 106.317 350.354 107.95C346.737 113.667 341.662 118.917 335.129 123.7C328.012 128.95 321.362 131.575 315.179 131.575ZM349.115 131.925C348.065 131.925 347.54 131.167 347.54 129.65V129.3C348.007 127.667 348.474 125.625 348.94 123.175C349.524 120.725 350.165 117.867 350.865 114.6C351.565 111.333 352.44 107.25 353.49 102.35C354.54 97.3333 355.824 91.5583 357.34 85.025L355.24 79.95C354.657 78.4333 354.19 77.325 353.84 76.625C353.607 75.925 353.49 75.575 353.49 75.575C353.49 74.7583 354.482 74 356.465 73.3C362.299 71.0833 366.032 69.975 367.665 69.975C369.415 69.975 370.29 70.5 370.29 71.55C370.174 71.2 367.199 78.6667 361.365 93.95V95.525C361.365 98.7917 360.84 100.425 359.79 100.425C359.674 100.425 359.499 100.25 359.265 99.9C358.332 102.817 357.399 105.617 356.465 108.3C355.649 110.867 354.89 113.433 354.19 116C356.757 111.8 359.382 107.775 362.065 103.925C364.865 100.075 367.724 96.4583 370.64 93.075C379.39 82.925 386.624 77.85 392.34 77.85C395.024 77.85 396.365 78.9 396.365 81C396.365 81.7 396.19 82.575 395.84 83.625C394.907 87.5917 393.624 92.6083 391.99 98.675C390.357 104.625 388.432 111.567 386.215 119.5C392.982 114.483 398.232 109.117 401.965 103.4C402.549 102.7 402.957 102.35 403.19 102.35C403.54 102.35 403.715 102.583 403.715 103.05C403.715 103.283 403.54 103.692 403.19 104.275C398.057 113.375 391.815 120.608 384.465 125.975C383.999 126.675 383.24 127.025 382.19 127.025C381.374 127.025 380.965 126.558 380.965 125.625C380.965 125.392 381.14 124.342 381.49 122.475C381.84 120.492 382.307 117.75 382.89 114.25C383.474 111.683 383.999 109.175 384.465 106.725C384.932 104.275 385.399 101.767 385.865 99.2C386.682 93.4833 387.207 88.4667 387.44 84.15C384.874 85.3167 382.074 87.2417 379.04 89.925C376.124 92.4917 372.857 95.7583 369.24 99.725C365.974 103.342 363.115 106.783 360.665 110.05C358.332 113.2 356.407 116.175 354.89 118.975C353.257 122.125 352.032 125.508 351.215 129.125C350.749 130.992 350.049 131.925 349.115 131.925ZM358.39 80.3L359.965 74.525C359.382 74.9917 358.274 75.575 356.64 76.275L358.39 80.3ZM462.406 170.6C458.439 170.6 455.056 169.725 452.256 167.975C448.873 165.642 447.181 162.725 447.181 159.225C447.181 158.758 447.414 158.525 447.881 158.525C448.231 158.525 448.464 158.758 448.581 159.225C449.514 165.175 453.423 168.15 460.306 168.15C473.723 168.15 485.739 153.742 496.356 124.925C487.606 127.142 479.031 128.25 470.631 128.25C462.581 128.25 455.406 127.083 449.106 124.75C440.589 121.6 436.331 116.583 436.331 109.7C436.331 102.7 440.939 94.5917 450.156 85.375C445.256 80.825 442.806 75.4 442.806 69.1C442.806 59.65 447.939 51.7167 458.206 45.3C467.423 39.4667 476.931 36.55 486.731 36.55C488.364 36.55 490.581 36.725 493.381 37.075C496.998 37.5417 498.806 38.1833 498.806 39C498.689 39.35 498.514 39.525 498.281 39.525C497.114 39.525 495.306 39.2917 492.856 38.825C490.523 38.2417 488.714 37.95 487.431 37.95C478.448 37.95 469.873 40.6917 461.706 46.175C452.606 52.2417 448.056 59.5917 448.056 68.225C448.056 73.475 449.923 78.1417 453.656 82.225C457.973 78.2583 462.756 74.4667 468.006 70.85C473.256 67.1167 479.089 63.5583 485.506 60.175C491.223 57.1417 496.881 54.1083 502.481 51.075C508.198 48.0417 513.914 45.0667 519.631 42.15C520.564 39.4667 521.439 37.1917 522.256 35.325C523.073 33.3417 523.714 31.7667 524.181 30.6C526.164 26.2833 528.381 22.9 530.831 20.45C534.331 16.8333 537.423 15.025 540.106 15.025C543.139 15.025 544.656 16.775 544.656 20.275C544.656 24.2417 542.089 28.4417 536.956 32.875C535.673 33.925 533.923 35.15 531.706 36.55C529.489 37.95 526.864 39.5833 523.831 41.45C522.898 43.7833 521.789 47.4 520.506 52.3C519.339 57.2 517.939 63.325 516.306 70.675C526.223 63.9083 535.964 60.525 545.531 60.525C555.214 60.525 560.056 64.1417 560.056 71.375C560.056 77.4417 555.914 85.2583 547.631 94.825C536.548 107.425 522.373 116.467 505.106 121.95C495.073 154.383 480.839 170.6 462.406 170.6ZM524.881 39.175C526.164 38.3583 527.623 37.3083 529.256 36.025C530.889 34.7417 532.639 33.1667 534.506 31.3C539.056 26.8667 541.331 23.6583 541.331 21.675C541.331 20.3917 540.864 19.75 539.931 19.75C538.764 19.75 537.014 20.8 534.681 22.9C531.881 25.35 528.614 30.775 524.881 39.175ZM472.556 90.1C478.623 90.1 485.331 88.35 492.681 84.85C494.548 83.9167 496.939 82.575 499.856 80.825C502.889 78.9583 506.506 76.7417 510.706 74.175C512.223 67.9917 513.681 62.3917 515.081 57.375C516.481 52.3583 517.764 47.9833 518.931 44.25C516.014 45.7667 512.456 47.6917 508.256 50.025C504.056 52.2417 499.156 54.8667 493.556 57.9C479.439 66.1833 467.714 75.575 458.381 86.075C462.814 88.7583 467.539 90.1 472.556 90.1ZM505.631 119.325C521.031 114.658 533.339 107.075 542.556 96.575C549.789 88.2917 553.406 81.5833 553.406 76.45C553.406 70.0333 548.564 66.825 538.881 66.825C531.064 66.825 523.364 68.8083 515.781 72.775C514.848 78.025 513.506 84.5583 511.756 92.375C510.123 100.075 508.081 109.058 505.631 119.325ZM477.106 124.575C480.373 124.575 483.639 124.4 486.906 124.05C490.289 123.583 493.673 122.942 497.056 122.125C500.556 112.675 504.931 97.275 510.181 75.925C495.364 87.7083 482.414 93.6 471.331 93.6C465.731 93.6 460.481 92.2 455.581 89.4C450.214 96.1667 447.531 102.175 447.531 107.425C447.531 113.842 451.089 118.508 458.206 121.425C463.456 123.525 469.756 124.575 477.106 124.575ZM700.783 170.6C693.317 170.6 684.45 168.208 674.183 163.425C673.6 163.192 671.033 161.85 666.483 159.4C661.933 156.95 655.517 153.508 647.233 149.075C641.867 146.158 636.908 143.708 632.358 141.725C627.925 139.858 623.9 138.517 620.283 137.7C612.817 144.817 606.108 148.375 600.158 148.375C598.992 148.375 598.408 147.908 598.408 146.975C598.408 146.275 598.933 145.867 599.983 145.75C605.817 144.933 611.65 142.075 617.483 137.175C615.967 136.942 614.45 136.708 612.933 136.475C611.533 136.358 610.075 136.3 608.558 136.3C604.125 136.3 600.042 137.175 596.308 138.925C591.642 141.025 589.308 144.058 589.308 148.025C589.308 151.408 590.825 154.442 593.858 157.125C596.892 159.925 600.158 161.325 603.658 161.325C604.708 161.325 605.233 161.733 605.233 162.55C605.233 162.9 604.65 163.075 603.483 163.075C599.633 163.075 595.958 161.85 592.458 159.4C588.492 156.833 586.508 153.625 586.508 149.775C586.508 144.992 589.075 141.258 594.208 138.575C598.292 136.475 603.017 135.425 608.383 135.425C610.017 135.425 611.65 135.483 613.283 135.6C615.033 135.717 616.842 135.892 618.708 136.125C619.642 135.308 620.517 134.492 621.333 133.675C622.267 132.858 623.142 131.983 623.958 131.05C610.308 127.55 603.483 117.983 603.483 102.35C603.483 97.3333 604.183 92.375 605.583 87.475C603.133 83.0417 601.908 78.375 601.908 73.475C601.908 64.8417 605.467 56.9083 612.583 49.675C625.3 36.2583 642.275 29.55 663.508 29.55C666.075 29.55 668.467 29.725 670.683 30.075C671.267 25.9917 671.733 21.6167 672.083 16.95C672.433 12.1667 672.608 7.09166 672.608 1.72499C672.608 0.791658 672.958 0.32499 673.658 0.32499C674.008 0.32499 674.183 0.616657 674.183 1.19999C674.533 3.76666 674.708 6.79999 674.708 10.3C674.708 13.3333 674.533 16.5417 674.183 19.925C673.95 23.1917 673.542 26.6917 672.958 30.425C681.825 32.175 689.175 36.3167 695.008 42.85C700.725 49.2667 703.583 56.9667 703.583 65.95C703.583 83.2167 696.233 98.675 681.533 112.325C667.067 125.508 651.142 132.1 633.758 132.1C631.192 132.1 628.742 131.925 626.408 131.575C625.592 132.508 624.717 133.383 623.783 134.2C622.967 135.017 622.15 135.833 621.333 136.65C629.15 138.283 643.792 143.533 665.258 152.4C683.575 159.983 698.508 163.775 710.058 163.775C718.925 163.775 723.358 161.208 723.358 156.075C723.358 152.692 721.783 148.667 718.633 144C720.033 144.817 721.375 146.392 722.658 148.725C724.058 151.175 724.758 153.275 724.758 155.025C724.758 159.808 721.842 163.717 716.008 166.75C711.225 169.317 706.15 170.6 700.783 170.6ZM628.333 125.975C633.117 120.142 637.667 113.608 641.983 106.375C646.3 99.1417 650.383 91.2083 654.233 82.575C651.667 79.1917 650.383 75.4583 650.383 71.375C650.383 66.9417 651.55 64.725 653.883 64.725C655.867 64.725 657.442 66.7083 658.608 70.675L659.483 69.8C661.933 63.3833 664.033 57.0833 665.783 50.9C667.533 44.7167 668.992 38.5917 670.158 32.525C667.942 32.175 665.725 32 663.508 32C652.075 32 641.925 34.5083 633.058 39.525C623.608 44.6583 616.375 52.125 611.358 61.925C608.558 67.525 607.158 73.4167 607.158 79.6C607.158 80.0667 607.158 80.5333 607.158 81C607.158 81.4667 607.217 81.9333 607.333 82.4C611.417 71.9 618.417 62.5667 628.333 54.4C638.95 45.5333 649.508 41.1 660.008 41.1C661.525 41.1 662.283 41.5083 662.283 42.325C662.283 43.1417 661.467 43.55 659.833 43.55C651.2 43.55 641.283 49.15 630.083 60.35C620.283 70.0333 613.342 79.6 609.258 89.05C610.308 91.0333 612.117 92.6083 614.683 93.775C616.9 94.825 618.008 95.525 618.008 95.875C618.008 96.6917 617.483 97.1 616.433 97.1C613.75 97.1 611.008 95.2917 608.208 91.675C606.692 95.525 605.933 99.0833 605.933 102.35C605.933 117.4 613.4 125.275 628.333 125.975ZM630.783 126.15C646.65 126.033 661.583 119.558 675.583 106.725C689.933 93.5417 697.108 79.1333 697.108 63.5C697.108 55.8 694.892 49.2083 690.458 43.725C686.025 38.2417 680.017 34.6833 672.433 33.05C670.333 43.9 667.008 55.5083 662.458 67.875C663.742 67.175 664.733 66.825 665.433 66.825C666.6 66.825 667.183 67.4667 667.183 68.75C667.183 71.2 665.9 73.9417 663.333 76.975C662.05 78.4917 660.767 79.8333 659.483 81C658.317 82.05 657.15 82.8667 655.983 83.45C648.517 100.133 640.117 114.367 630.783 126.15ZM711.527 128.95C710.243 128.95 709.602 128.6 709.602 127.9C709.602 123.7 711.293 118.333 714.677 111.8C718.877 103.633 721.327 98.325 722.027 95.875C723.193 91.9083 723.777 87.0083 723.777 81.175C723.427 82.3417 722.668 84.0333 721.502 86.25C720.335 88.4667 718.76 91.2667 716.777 94.65C714.91 97.9167 713.218 100.658 711.702 102.875C710.302 104.975 709.135 106.667 708.202 107.95C708.202 108.067 708.085 108.125 707.852 108.125C707.268 108.125 706.977 107.892 706.977 107.425L712.227 98.5C715.143 93.6 717.477 89.1083 719.227 85.025C720.977 80.825 722.26 77.0917 723.077 73.825C723.777 70.7917 725.177 69.275 727.277 69.275C729.377 69.275 730.427 71.725 730.427 76.625C730.427 79.1917 730.077 82.4 729.377 86.25C728.677 90.1 727.51 94.5333 725.877 99.55L718.527 122.475C722.843 119.208 726.985 115.475 730.952 111.275C735.035 107.075 738.71 102.233 741.977 96.75L743.027 95C744.31 86.4833 745.885 81.1167 747.752 78.9C748.218 78.0833 749.268 77.675 750.902 77.675C753.352 77.675 754.577 78.3167 754.577 79.6C754.577 83.1 753.468 86.3083 751.252 89.225C748.685 97.975 747.402 106.492 747.402 114.775C747.402 120.375 749.152 123.175 752.652 123.175C754.402 123.175 756.443 122.183 758.777 120.2C761.11 118.217 762.218 117.225 762.102 117.225C762.452 117.225 762.627 117.575 762.627 118.275V118.625C758.66 124.225 754.227 127.025 749.327 127.025C744.31 127.025 741.802 122.708 741.802 114.075C741.802 111.975 741.86 109.7 741.977 107.25C742.21 104.8 742.443 102.117 742.677 99.2C738.243 107.6 730.952 115.767 720.802 123.7C720.218 124.167 719.402 124.808 718.352 125.625C717.302 126.442 716.135 127.317 714.852 128.25C714.268 128.717 713.16 128.95 711.527 128.95ZM781.68 69.275C779.347 69.275 778.18 68.05 778.18 65.6C778.18 64.4333 778.88 63.0333 780.28 61.4C781.797 59.65 783.138 58.4833 784.305 57.9C788.505 55.9167 791.013 54.925 791.83 54.925C792.18 54.925 792.355 55.0417 792.355 55.275C792.355 55.625 791.013 57.3167 788.33 60.35C788.097 60.5833 787.222 62.3917 785.705 65.775C784.422 68.1083 783.08 69.275 781.68 69.275ZM771.18 125.45C765.23 125.45 762.255 122.475 762.255 116.525C762.255 112.092 763.422 106.492 765.755 99.725L762.605 104.625C761.088 107.192 760.038 108.475 759.455 108.475C759.222 108.475 759.105 108.3 759.105 107.95C759.105 107.017 759.455 106.142 760.155 105.325C762.955 101.475 766.047 95.9333 769.43 88.7C769.78 87.7667 770.247 86.6 770.83 85.2C771.53 83.8 772.347 82.225 773.28 80.475C773.863 79.425 775.322 78.9 777.655 78.9C779.638 78.9 780.63 79.4833 780.63 80.65C780.63 81.9333 780.047 83.6833 778.88 85.9C777.83 88.2333 776.838 89.575 775.905 89.925C769.838 102.058 766.805 110.983 766.805 116.7C766.805 120.55 768.088 122.475 770.655 122.475C774.855 122.475 779.463 119.442 784.48 113.375C789.73 107.308 792.297 104.275 792.18 104.275C792.413 104.275 792.53 104.45 792.53 104.8C792.53 104.917 792.413 105.325 792.18 106.025C791.13 107.892 789.788 109.817 788.155 111.8C786.638 113.667 784.888 115.65 782.905 117.75C777.772 122.883 773.863 125.45 771.18 125.45ZM789.35 131.925C788.3 131.925 787.775 131.167 787.775 129.65V129.3C788.241 127.667 788.708 125.625 789.175 123.175C789.758 120.725 790.4 117.867 791.1 114.6C791.8 111.333 792.675 107.25 793.725 102.35C794.775 97.3333 796.058 91.5583 797.575 85.025L795.475 79.95C794.891 78.4333 794.425 77.325 794.075 76.625C793.841 75.925 793.725 75.575 793.725 75.575C793.725 74.7583 794.716 74 796.7 73.3C802.533 71.0833 806.266 69.975 807.9 69.975C809.65 69.975 810.525 70.5 810.525 71.55C810.408 71.2 807.433 78.6667 801.6 93.95V95.525C801.6 98.7917 801.075 100.425 800.025 100.425C799.908 100.425 799.733 100.25 799.5 99.9C798.566 102.817 797.633 105.617 796.7 108.3C795.883 110.867 795.125 113.433 794.425 116C796.991 111.8 799.616 107.775 802.3 103.925C805.1 100.075 807.958 96.4583 810.875 93.075C819.625 82.925 826.858 77.85 832.575 77.85C835.258 77.85 836.6 78.9 836.6 81C836.6 81.7 836.425 82.575 836.075 83.625C835.141 87.5917 833.858 92.6083 832.225 98.675C830.591 104.625 828.666 111.567 826.45 119.5C833.216 114.483 838.466 109.117 842.2 103.4C842.783 102.7 843.191 102.35 843.425 102.35C843.775 102.35 843.95 102.583 843.95 103.05C843.95 103.283 843.775 103.692 843.425 104.275C838.291 113.375 832.05 120.608 824.7 125.975C824.233 126.675 823.475 127.025 822.425 127.025C821.608 127.025 821.2 126.558 821.2 125.625C821.2 125.392 821.375 124.342 821.725 122.475C822.075 120.492 822.541 117.75 823.125 114.25C823.708 111.683 824.233 109.175 824.7 106.725C825.166 104.275 825.633 101.767 826.1 99.2C826.916 93.4833 827.441 88.4667 827.675 84.15C825.108 85.3167 822.308 87.2417 819.275 89.925C816.358 92.4917 813.091 95.7583 809.475 99.725C806.208 103.342 803.35 106.783 800.9 110.05C798.566 113.2 796.641 116.175 795.125 118.975C793.491 122.125 792.266 125.508 791.45 129.125C790.983 130.992 790.283 131.925 789.35 131.925ZM798.625 80.3L800.2 74.525C799.616 74.9917 798.508 75.575 796.875 76.275L798.625 80.3ZM863.04 132.45C857.207 132.45 854.29 128.892 854.29 121.775C854.29 116.642 855.573 110.283 858.14 102.7C857.673 101.183 856.857 99.8417 855.69 98.675C854.64 97.3917 853.123 96.3417 851.14 95.525L841.69 91.675C840.173 90.975 839.415 89.75 839.415 88C839.415 86.1333 840.232 85.025 841.865 84.675H846.59C852.773 84.675 859.248 83.975 866.015 82.575L866.19 82.225L877.74 56.675L882.815 44.95C883.748 42.85 886.023 41.8 889.64 41.8C892.09 41.8 893.315 42.3833 893.315 43.55C893.315 44.0167 891.157 48.975 886.84 58.425C882.523 67.9917 880.073 73.0667 879.49 73.65L876.515 76.45L874.415 80.65C876.165 80.0667 879.14 79.075 883.34 77.675C887.657 76.1583 893.198 74.2333 899.965 71.9C900.432 71.7833 900.84 71.725 901.19 71.725C901.54 71.6083 901.773 71.55 901.89 71.55C902.357 71.55 902.59 71.6667 902.59 71.9C902.59 73.8833 892.732 77.675 873.015 83.275C870.682 87.825 868.698 91.7333 867.065 95C865.432 98.15 864.207 100.717 863.39 102.7C860.357 110.4 858.84 117.342 858.84 123.525C858.84 127.375 860.123 129.3 862.69 129.3C865.84 129.3 869.982 127.083 875.115 122.65L882.99 115.825C883.34 115.825 883.515 116 883.515 116.35C883.515 116.7 883.34 117.225 882.99 117.925C881.123 120.725 878.148 123.7 874.065 126.85C869.282 130.583 865.607 132.45 863.04 132.45ZM858.84 100.25C859.657 97.9167 860.532 95.525 861.465 93.075C862.515 90.625 863.623 88.1167 864.79 85.55C861.873 86.25 858.898 86.8917 855.865 87.475C852.948 88.0583 850.032 88.5833 847.115 89.05C853.182 92.2 857.09 95.9333 858.84 100.25ZM895.549 129.475C890.999 129.475 888.724 126.558 888.724 120.725C888.724 113.608 891.407 106.317 896.774 98.85C894.907 94.3 893.974 89.4583 893.974 84.325C893.974 79.3083 894.965 74.9333 896.949 71.2C900.682 63.85 905.465 60.175 911.299 60.175C918.532 60.175 922.732 66.3583 923.899 78.725C926.815 78.8417 928.974 79.775 930.374 81.525C931.89 83.1583 932.649 85.4917 932.649 88.525C932.649 90.8583 932.357 92.55 931.774 93.6C931.307 94.5333 930.84 95 930.374 95C929.907 95 929.674 94.7667 929.674 94.3C929.674 93.7167 929.732 93.0167 929.849 92.2C930.082 91.3833 930.199 90.3917 930.199 89.225C930.199 87.5917 929.615 86.3667 928.449 85.55C927.282 84.6167 925.824 84.15 924.074 84.15C922.674 98.3833 919.232 109.292 913.749 116.875H919.174C917.657 117.808 916.315 118.275 915.149 118.275C914.915 118.275 914.565 118.217 914.099 118.1C913.749 117.983 913.457 117.925 913.224 117.925C913.457 118.042 911.415 119.967 907.099 123.7C902.549 127.55 898.699 129.475 895.549 129.475ZM898.699 96.925C905.815 87.3583 913.282 81.4083 921.099 79.075C918.765 69.0417 915.557 64.025 911.474 64.025C907.74 64.025 904.299 67.7 901.149 75.05C899.165 79.95 898.174 85.1417 898.174 90.625C898.174 92.8417 898.349 94.9417 898.699 96.925ZM908.149 116C910.949 113.433 913.807 108.417 916.724 100.95C919.757 93.25 921.274 87.5917 921.274 83.975C918.707 84.325 914.682 86.7167 909.199 91.15C903.832 95.4667 900.507 98.9083 899.224 101.475C901.674 110.342 904.649 115.183 908.149 116ZM896.074 124.225C899.34 124.225 903.132 121.775 907.449 116.875C903.599 116.408 900.449 111.8 897.999 103.05C894.149 109.467 892.224 114.483 892.224 118.1C892.224 122.183 893.507 124.225 896.074 124.225ZM933.93 131.925C932.88 131.925 932.355 131.167 932.355 129.65V129.3C932.822 127.667 933.288 125.625 933.755 123.175C934.338 120.725 934.98 117.867 935.68 114.6C936.38 111.333 937.255 107.25 938.305 102.35C939.355 97.3333 940.638 91.5583 942.155 85.025L940.055 79.95C939.472 78.4333 939.005 77.325 938.655 76.625C938.422 75.925 938.305 75.575 938.305 75.575C938.305 74.7583 939.297 74 941.28 73.3C947.113 71.0833 950.847 69.975 952.48 69.975C954.23 69.975 955.105 70.5 955.105 71.55C954.988 71.2 952.013 78.6667 946.18 93.95V95.525C946.18 98.7917 945.655 100.425 944.605 100.425C944.488 100.425 944.313 100.25 944.08 99.9C943.147 102.817 942.213 105.617 941.28 108.3C940.463 110.867 939.705 113.433 939.005 116C941.572 111.8 944.197 107.775 946.88 103.925C949.68 100.075 952.538 96.4583 955.455 93.075C964.205 82.925 971.438 77.85 977.155 77.85C979.838 77.85 981.18 78.9 981.18 81C981.18 81.7 981.005 82.575 980.655 83.625C979.722 87.5917 978.438 92.6083 976.805 98.675C975.172 104.625 973.247 111.567 971.03 119.5C977.797 114.483 983.047 109.117 986.78 103.4C987.363 102.7 987.772 102.35 988.005 102.35C988.355 102.35 988.53 102.583 988.53 103.05C988.53 103.283 988.355 103.692 988.005 104.275C982.872 113.375 976.63 120.608 969.28 125.975C968.813 126.675 968.055 127.025 967.005 127.025C966.188 127.025 965.78 126.558 965.78 125.625C965.78 125.392 965.955 124.342 966.305 122.475C966.655 120.492 967.122 117.75 967.705 114.25C968.288 111.683 968.813 109.175 969.28 106.725C969.747 104.275 970.213 101.767 970.68 99.2C971.497 93.4833 972.022 88.4667 972.255 84.15C969.688 85.3167 966.888 87.2417 963.855 89.925C960.938 92.4917 957.672 95.7583 954.055 99.725C950.788 103.342 947.93 106.783 945.48 110.05C943.147 113.2 941.222 116.175 939.705 118.975C938.072 122.125 936.847 125.508 936.03 129.125C935.563 130.992 934.863 131.925 933.93 131.925ZM943.205 80.3L944.78 74.525C944.197 74.9917 943.088 75.575 941.455 76.275L943.205 80.3Z" fill="white"/>
</svg>
